<?xml version="1.0" encoding="UTF-8"?>
<!DOCTYPE svg PUBLIC "-//W3C//DTD SVG 1.1//EN" "http://www.w3.org/Graphics/SVG/1.1/DTD/svg11.dtd">
<!-- Creator: CorelDRAW X6 -->
<svg xmlns="http://www.w3.org/2000/svg" xml:space="preserve" width="300mm" height="300mm" version="1.1" style="shape-rendering:geometricPrecision; text-rendering:geometricPrecision; image-rendering:optimizeQuality; fill-rule:evenodd; clip-rule:evenodd"
viewBox="0 0 30000 30000"
 xmlns:xlink="http://www.w3.org/1999/xlink">
 <defs>
  <style type="text/css">
   <![CDATA[
    .str0 {stroke:#221F20;stroke-width:20}
    .fil2 {fill:none;fill-rule:nonzero}
    .fil1 {fill:#004056}
    .fil0 {fill:#008BBD;fill-rule:nonzero}
    .fil3 {fill:#00ADEF;fill-rule:nonzero}
    .fil4 {fill:#004056;fill-rule:nonzero}
    .fil5 {fill:#007098;fill-rule:nonzero}
    .fil6 {fill:#008BBD;fill-rule:nonzero}
   ]]>
  </style>
     <clipPath id="id0" style="clip-rule:nonzero">
      <path d="M6599 15397c-121,-76 -256,-136 -405,-181 -149,-45 -303,-68 -462,-68 -121,0 -238,19 -351,57 -113,38 -212,94 -295,170 -125,113 -214,258 -269,434 -55,176 -82,362 -82,558 0,412 82,733 247,963 164,230 415,346 751,346 193,0 365,-21 516,-62 151,-42 291,-100 419,-176l57 555c-128,76 -289,138 -482,187 -193,49 -401,74 -623,74 -261,0 -493,-46 -697,-139 -204,-93 -377,-221 -519,-385 -142,-164 -249,-359 -323,-584 -74,-225 -111,-469 -111,-734 0,-249 37,-486 111,-708 74,-223 181,-418 323,-587 142,-168 316,-302 524,-402 208,-100 444,-150 708,-150 204,0 398,24 581,71 183,47 324,103 422,167l-40 595z"/>
     </clipPath>
     <clipPath id="id1" style="clip-rule:nonzero">
      <path d="M7908 14563l0 1153c42,-49 94,-94 156,-131 62,-39 124,-67 184,-86 64,-24 129,-40 196,-49 66,-9 131,-14 196,-14 170,0 325,30 465,91 140,60 253,145 340,256 87,113 145,243 173,389 28,145 43,335 43,571l0 1448 -669 0 0 -1462c0,-159 -5,-285 -14,-380 -9,-94 -41,-178 -94,-249 -42,-60 -97,-105 -167,-133 -70,-28 -143,-43 -218,-43 -76,0 -153,14 -232,43 -79,28 -149,80 -210,156 -57,64 -95,142 -116,232 -21,91 -31,213 -31,368l0 1468 -669 0 0 -3502 669 -125z"/>
     </clipPath>
     <clipPath id="id2" style="clip-rule:nonzero">
      <path d="M10407 15640c132,-57 281,-104 448,-142 166,-38 349,-57 550,-57 68,0 142,6 221,17 79,11 161,30 244,57 83,26 163,62 241,108 77,45 145,102 201,170 72,83 125,189 159,317 34,128 51,276 51,442l0 1638 -283 0 -198 -351c-87,155 -211,263 -371,323 -161,60 -332,91 -513,91 -132,0 -259,-17 -380,-51 -121,-34 -229,-86 -323,-156 -94,-70 -170,-158 -227,-264 -57,-106 -85,-230 -85,-374 0,-174 45,-321 136,-442 91,-121 213,-220 368,-298 155,-77 336,-135 544,-173 208,-38 429,-60 663,-68 0,-64 -9,-128 -26,-193 -17,-64 -46,-117 -88,-159 -42,-42 -98,-77 -170,-105 -72,-28 -168,-43 -289,-43 -121,0 -251,17 -391,51 -140,34 -285,89 -436,164l-45 -504zm1445 1218c-329,19 -576,67 -742,145 -166,77 -249,205 -249,383 0,121 39,214 116,281 77,66 175,99 292,99 159,0 296,-40 411,-119 115,-79 173,-215 173,-408l0 -380z"/>
     </clipPath>
     <clipPath id="id3" style="clip-rule:nonzero">
      <path d="M13944 14751l0 742 816 0 -125 431 -691 0 0 1406c0,140 29,247 88,323 59,76 156,113 292,113 64,0 143,-10 235,-31 93,-21 188,-52 286,-94l45 476c-34,19 -79,36 -136,51 -57,15 -117,29 -181,43 -64,13 -129,24 -196,31 -66,8 -129,11 -190,11 -317,0 -549,-79 -694,-238 -145,-159 -218,-391 -218,-697l0 -1406 -436 -136 0 -283 436 0 0 -612 669 -130z"/>
     </clipPath>
 </defs>
 <g id="Camada_x0020_1">
  <metadata id="CorelCorpID_0Corel-Layer"/>
  <g id="_966528448">
   <g>
    <path class="fil0" d="M6599 15397c-121,-76 -256,-136 -405,-181 -149,-45 -303,-68 -462,-68 -121,0 -238,19 -351,57 -113,38 -212,94 -295,170 -125,113 -214,258 -269,434 -55,176 -82,362 -82,558 0,412 82,733 247,963 164,230 415,346 751,346 193,0 365,-21 516,-62 151,-42 291,-100 419,-176l57 555c-128,76 -289,138 -482,187 -193,49 -401,74 -623,74 -261,0 -493,-46 -697,-139 -204,-93 -377,-221 -519,-385 -142,-164 -249,-359 -323,-584 -74,-225 -111,-469 -111,-734 0,-249 37,-486 111,-708 74,-223 181,-418 323,-587 142,-168 316,-302 524,-402 208,-100 444,-150 708,-150 204,0 398,24 581,71 183,47 324,103 422,167l-40 595z"/>
    <g style="clip-path:url(#id0)">
     <g>
      <ellipse class="fil1 str0" transform="matrix(1.17607 0.30323 -0.30323 1.17607 8381.81 12664.7)" rx="7474" ry="2676"/>
     </g>
    </g>
    <path class="fil2" d="M6599 15397c-121,-76 -256,-136 -405,-181 -149,-45 -303,-68 -462,-68 -121,0 -238,19 -351,57 -113,38 -212,94 -295,170 -125,113 -214,258 -269,434 -55,176 -82,362 -82,558 0,412 82,733 247,963 164,230 415,346 751,346 193,0 365,-21 516,-62 151,-42 291,-100 419,-176l57 555c-128,76 -289,138 -482,187 -193,49 -401,74 -623,74 -261,0 -493,-46 -697,-139 -204,-93 -377,-221 -519,-385 -142,-164 -249,-359 -323,-584 -74,-225 -111,-469 -111,-734 0,-249 37,-486 111,-708 74,-223 181,-418 323,-587 142,-168 316,-302 524,-402 208,-100 444,-150 708,-150 204,0 398,24 581,71 183,47 324,103 422,167l-40 595z"/>
    <path class="fil0" d="M7908 14563l0 1153c42,-49 94,-94 156,-131 62,-39 124,-67 184,-86 64,-24 129,-40 196,-49 66,-9 131,-14 196,-14 170,0 325,30 465,91 140,60 253,145 340,256 87,113 145,243 173,389 28,145 43,335 43,571l0 1448 -669 0 0 -1462c0,-159 -5,-285 -14,-380 -9,-94 -41,-178 -94,-249 -42,-60 -97,-105 -167,-133 -70,-28 -143,-43 -218,-43 -76,0 -153,14 -232,43 -79,28 -149,80 -210,156 -57,64 -95,142 -116,232 -21,91 -31,213 -31,368l0 1468 -669 0 0 -3502 669 -125z"/>
    <g style="clip-path:url(#id1)">
     <g>
      <ellipse class="fil1 str0" transform="matrix(1.17607 0.30323 -0.30323 1.17607 8381.81 12664.7)" rx="7474" ry="2676"/>
     </g>
    </g>
    <path class="fil2" d="M7908 14563l0 1153c42,-49 94,-94 156,-131 62,-39 124,-67 184,-86 64,-24 129,-40 196,-49 66,-9 131,-14 196,-14 170,0 325,30 465,91 140,60 253,145 340,256 87,113 145,243 173,389 28,145 43,335 43,571l0 1448 -669 0 0 -1462c0,-159 -5,-285 -14,-380 -9,-94 -41,-178 -94,-249 -42,-60 -97,-105 -167,-133 -70,-28 -143,-43 -218,-43 -76,0 -153,14 -232,43 -79,28 -149,80 -210,156 -57,64 -95,142 -116,232 -21,91 -31,213 -31,368l0 1468 -669 0 0 -3502 669 -125z"/>
    <path class="fil0" d="M10407 15640c132,-57 281,-104 448,-142 166,-38 349,-57 550,-57 68,0 142,6 221,17 79,11 161,30 244,57 83,26 163,62 241,108 77,45 145,102 201,170 72,83 125,189 159,317 34,128 51,276 51,442l0 1638 -283 0 -198 -351c-87,155 -211,263 -371,323 -161,60 -332,91 -513,91 -132,0 -259,-17 -380,-51 -121,-34 -229,-86 -323,-156 -94,-70 -170,-158 -227,-264 -57,-106 -85,-230 -85,-374 0,-174 45,-321 136,-442 91,-121 213,-220 368,-298 155,-77 336,-135 544,-173 208,-38 429,-60 663,-68 0,-64 -9,-128 -26,-193 -17,-64 -46,-117 -88,-159 -42,-42 -98,-77 -170,-105 -72,-28 -168,-43 -289,-43 -121,0 -251,17 -391,51 -140,34 -285,89 -436,164l-45 -504zm1445 1218c-329,19 -576,67 -742,145 -166,77 -249,205 -249,383 0,121 39,214 116,281 77,66 175,99 292,99 159,0 296,-40 411,-119 115,-79 173,-215 173,-408l0 -380z"/>
    <g style="clip-path:url(#id2)">
     <g>
      <ellipse class="fil1 str0" transform="matrix(1.17607 0.30323 -0.30323 1.17607 8381.81 12664.7)" rx="7474" ry="2676"/>
     </g>
    </g>
    <path class="fil2" d="M10407 15640c132,-57 281,-104 448,-142 166,-38 349,-57 550,-57 68,0 142,6 221,17 79,11 161,30 244,57 83,26 163,62 241,108 77,45 145,102 201,170 72,83 125,189 159,317 34,128 51,276 51,442l0 1638 -283 0 -198 -351c-87,155 -211,263 -371,323 -161,60 -332,91 -513,91 -132,0 -259,-17 -380,-51 -121,-34 -229,-86 -323,-156 -94,-70 -170,-158 -227,-264 -57,-106 -85,-230 -85,-374 0,-174 45,-321 136,-442 91,-121 213,-220 368,-298 155,-77 336,-135 544,-173 208,-38 429,-60 663,-68 0,-64 -9,-128 -26,-193 -17,-64 -46,-117 -88,-159 -42,-42 -98,-77 -170,-105 -72,-28 -168,-43 -289,-43 -121,0 -251,17 -391,51 -140,34 -285,89 -436,164l-45 -504zm1445 1218c-329,19 -576,67 -742,145 -166,77 -249,205 -249,383 0,121 39,214 116,281 77,66 175,99 292,99 159,0 296,-40 411,-119 115,-79 173,-215 173,-408l0 -380z"/>
    <path class="fil0" d="M13944 14751l0 742 816 0 -125 431 -691 0 0 1406c0,140 29,247 88,323 59,76 156,113 292,113 64,0 143,-10 235,-31 93,-21 188,-52 286,-94l45 476c-34,19 -79,36 -136,51 -57,15 -117,29 -181,43 -64,13 -129,24 -196,31 -66,8 -129,11 -190,11 -317,0 -549,-79 -694,-238 -145,-159 -218,-391 -218,-697l0 -1406 -436 -136 0 -283 436 0 0 -612 669 -130z"/>
    <g style="clip-path:url(#id3)">
     <g>
      <ellipse class="fil1 str0" transform="matrix(1.17607 0.30323 -0.30323 1.17607 8381.81 12664.7)" rx="7474" ry="2676"/>
     </g>
    </g>
    <path class="fil2" d="M13944 14751l0 742 816 0 -125 431 -691 0 0 1406c0,140 29,247 88,323 59,76 156,113 292,113 64,0 143,-10 235,-31 93,-21 188,-52 286,-94l45 476c-34,19 -79,36 -136,51 -57,15 -117,29 -181,43 -64,13 -129,24 -196,31 -66,8 -129,11 -190,11 -317,0 -549,-79 -694,-238 -145,-159 -218,-391 -218,-697l0 -1406 -436 -136 0 -283 436 0 0 -612 669 -130z"/>
   </g>
   <g>
    <path class="fil3" d="M21961 12792l-3869 5159c-40,61 -91,116 -153,163 -117,87 -254,130 -389,130l-1 0 -1 0c-205,0 -397,-97 -519,-260l-870 -1160 1 -1 811 -1081 555 740c15,12 39,10 51,-7l1747 -2330 1599 -2131c215,-287 621,-345 908,-129 287,215 345,621 130,908z"/>
    <path class="fil4" d="M13137 12792l2577 3435 685 -913 126 -168 -638 -851 -1711 -2282c-215,-286 -622,-345 -908,-129 -64,49 -118,106 -158,171 -141,221 -138,515 28,738z"/>
    <path class="fil0" d="M24156 12792l-3894 5191c-127,170 -322,260 -520,260 -135,0 -272,-43 -389,-130 -286,-215 -345,-622 -129,-908l2182 -2910 1711 -2282c215,-286 622,-345 908,-129 64,49 118,106 158,171 141,221 138,515 -28,738z"/>
    <path class="fil5" d="M21961 12792l-1182 1576c-48,3 -96,3 -145,3 -460,0 -901,-80 -1310,-227l1599 -2131c215,-287 621,-345 908,-129 287,215 345,621 130,908z"/>
    <path class="fil5" d="M24184 12054c-499,1138 -1530,1988 -2778,2240l1711 -2282c215,-286 622,-345 908,-129 64,49 118,106 158,171z"/>
    <path class="fil6" d="M25970 15565l0 551 -475 0 0 1062c0,216 4,341 13,376 9,35 29,65 62,88 32,23 71,35 117,35 65,0 157,-22 280,-67l58 539c-161,69 -343,104 -546,104 -125,0 -237,-21 -337,-63 -100,-42 -173,-97 -220,-163 -47,-67 -79,-157 -98,-272 -14,-81 -22,-244 -22,-491l0 -1148 -318 0 0 -551 318 0 0 -520 692 -409 0 930 475 0z"/>
    <polygon class="fil6" points="23369,18187 23369,15565 24061,15565 24061,18187 "/>
    <polygon class="fil6" points="23369,15212 23369,14570 24061,14570 24061,15212 "/>
    <path class="fil5" d="M24803 15278c381,179 770,339 1167,480l0 -192 -475 0 0 -930 -692 409 0 233z"/>
    <path class="fil5" d="M23506 14570c182,114 368,223 555,327l0 -327 -555 0z"/>
   </g>
  </g>
 </g>
</svg>
