<svg width="25" height="24"  xmlns="http://www.w3.org/2000/svg"><path d="M12.5 6a1 1 0 0 1 1 1v4h4a1 1 0 1 1 0 2h-4v4a1 1 0 1 1-2 0v-4h-4a1 1 0 1 1 0-2h4V7a1 1 0 0 1 1-1Z" fill="#FAFAFA"/><path fill-rule="evenodd" clip-rule="evenodd" d="M11.505 2c-1.386 0-2.488 0-3.377.074-.91.075-1.685.234-2.394.602a6 6 0 0 0-2.558 2.558c-.368.709-.527 1.484-.602 2.394-.074.89-.074 1.991-.074 3.377v1.99c0 1.386 0 2.488.074 3.377.075.91.234 1.686.602 2.394a6 6 0 0 0 2.558 2.559c.709.367 1.484.526 2.394.601.89.074 1.992.074 3.377.074h1.99c1.386 0 2.488 0 3.377-.074.91-.075 1.686-.233 2.394-.601a6 6 0 0 0 2.559-2.56c.367-.707.526-1.483.601-2.393.074-.89.074-1.992.074-3.377v-1.99c0-1.385 0-2.488-.074-3.377-.075-.91-.233-1.685-.601-2.394a6 6 0 0 0-2.56-2.558c-.707-.368-1.483-.527-2.393-.602C15.982 2 14.88 2 13.495 2h-1.99ZM6.656 4.45c.375-.195.854-.318 1.638-.383C9.09 4 10.11 4 11.55 4h1.9c1.44 0 2.46 0 3.256.067.785.065 1.263.188 1.638.383a4 4 0 0 1 1.706 1.706c.195.375.318.854.383 1.638.066.796.067 1.815.067 3.256v1.9c0 1.44 0 2.46-.067 3.256-.065.785-.188 1.263-.383 1.638a4 4 0 0 1-1.706 1.706c-.375.195-.854.318-1.638.383C15.91 20 14.89 20 13.45 20h-1.9c-1.44 0-2.46 0-3.256-.067-.784-.065-1.263-.188-1.638-.383a4 4 0 0 1-1.706-1.706c-.195-.375-.318-.854-.383-1.638C4.5 15.41 4.5 14.39 4.5 12.95v-1.9c0-1.44 0-2.46.067-3.256.065-.784.188-1.263.383-1.638A4 4 0 0 1 6.656 4.45Z" fill="#FAFAFA"/></svg>