<?xml version="1.0" encoding="UTF-8"?>
<svg version="1.1" xmlns="http://www.w3.org/2000/svg" width="512" height="512">
<path d="M0 0 C0.73048673 -0.00235223 1.46097347 -0.00470446 2.21359617 -0.00712797 C4.68653096 -0.01383933 7.15941348 -0.01335911 9.63235664 -0.01294994 C11.41314656 -0.01624723 13.19393573 -0.01997251 14.97472394 -0.02409142 C19.88796379 -0.03413473 24.80119143 -0.03783194 29.71444011 -0.04048073 C35.0056064 -0.04437682 40.29676295 -0.05395554 45.58792305 -0.0626936 C58.3747585 -0.08247636 71.16159476 -0.09252592 83.94844168 -0.10142139 C89.96396193 -0.10580079 95.97948129 -0.11116845 101.99500084 -0.11641026 C121.98093356 -0.13342335 141.96686572 -0.14791921 161.95280457 -0.155159 C167.14181583 -0.15706901 172.33082709 -0.15898933 177.51983833 -0.16094494 C178.80960367 -0.16142868 180.09936901 -0.16191242 181.42821814 -0.16241082 C202.33816263 -0.17071743 223.24805004 -0.19606462 244.15796958 -0.22852562 C265.60568873 -0.26155123 287.05337882 -0.27960363 308.50112355 -0.28280324 C320.5514334 -0.28497237 332.60165997 -0.29377993 344.65194511 -0.31926441 C354.91090589 -0.34090994 365.16976316 -0.34905221 375.42874418 -0.33929763 C380.66667376 -0.3347352 385.9043895 -0.33675139 391.14229012 -0.35605907 C395.93267054 -0.37356532 400.72267916 -0.37279596 405.51306285 -0.35716178 C407.25061768 -0.35476652 408.98819742 -0.35920748 410.72571395 -0.37099043 C413.07928976 -0.38596885 415.43152397 -0.37653624 417.7850647 -0.36076355 C419.09477513 -0.36174036 420.40448557 -0.36271717 421.7538842 -0.36372358 C425.01837349 0.13422108 425.01837349 0.13422108 427.438995 1.81298572 C429.39537286 4.68830249 429.51948596 6.30531532 429.52173805 9.76897144 C429.53216904 10.92398938 429.54260003 12.07900732 429.55334711 13.2690258 C429.54442422 14.5386589 429.53550134 15.80829199 429.52630806 17.11639881 C429.53091592 18.47819117 429.53726807 19.83997857 429.54521704 21.20175552 C429.56194963 24.94764994 429.55364644 28.69313791 429.54127216 32.43903399 C429.53223994 36.47727939 429.54618228 40.51545379 429.55719185 44.55368519 C429.57500127 52.46606124 429.57112634 60.37828572 429.55954129 68.29066777 C429.55051674 74.71980393 429.54927871 81.14889754 429.55363655 87.57803822 C429.55424948 88.49221057 429.55486242 89.40638293 429.55549392 90.34825748 C429.55677279 92.20523843 429.55806964 94.06221937 429.55938429 95.9192003 C429.57079718 113.34218082 429.55766527 130.76507723 429.53618282 148.18804395 C429.51831119 163.14573106 429.5214151 178.10329402 429.53985786 193.06097889 C429.56125206 210.42056448 429.56969848 227.7800763 429.55740881 245.13967323 C429.55613458 246.98991679 429.5548771 248.84016036 429.55363655 250.69040394 C429.55301945 251.60081753 429.55240235 252.51123112 429.55176654 253.449233 C429.54830929 259.87247576 429.55415007 266.29567183 429.56355476 272.71890736 C429.57476003 280.54409772 429.57176582 288.36912754 429.55043179 296.19429946 C429.53990142 300.1887383 429.53583308 304.18290923 429.5490284 308.17734623 C429.56091744 311.83155244 429.55444825 315.48524154 429.53311819 319.1394006 C429.52650872 321.09273964 429.53961945 323.04611437 429.55334711 324.99941635 C429.54291612 326.15443429 429.53248513 327.30945223 429.52173805 328.49947071 C429.52108864 329.49824521 429.52043923 330.49701971 429.51977015 331.5260601 C428.87576072 334.87606299 427.68559109 336.06755933 425.01837349 338.13422108 C421.90216255 338.58832264 421.90216255 338.58832264 418.28399849 338.52484608 C416.98849068 338.51195545 415.69298286 338.49906483 414.35821724 338.48578358 C412.99492525 338.45236474 411.631644 338.41850499 410.26837349 338.38422108 C408.88949285 338.36414815 407.51058437 338.34589875 406.13165474 338.32953358 C402.75985605 338.28237555 399.38946662 338.21656646 396.01837349 338.13422108 C396.03408394 339.28946278 396.04979439 340.44470448 396.06598091 341.6349535 C396.12037718 345.93061795 396.15475882 350.22625208 396.18316841 354.52216053 C396.19823295 356.37963453 396.21868858 358.23707309 396.24469185 360.09442616 C396.28117807 362.76793647 396.29812319 365.44097552 396.31134224 368.11468983 C396.3268261 368.94196079 396.34230995 369.76923176 396.35826302 370.62157154 C396.3596172 375.28566985 396.06078199 378.3493558 393.01837349 382.13422108 C390.00624319 383.64028622 386.90554727 383.25582438 383.60431099 383.23187733 C382.8746714 383.23046238 382.14503181 383.22904743 381.39328194 383.22758961 C379.05993764 383.22198638 376.72668885 383.20943342 374.39337349 383.19672108 C372.81264571 383.19170649 371.23191642 383.18714351 369.65118599 383.1830492 C365.77354495 383.17201592 361.89597542 383.15474919 358.01837349 383.13422108 C358.03408394 384.19334705 358.04979439 385.25247303 358.06598091 386.34369373 C358.12047471 390.29088133 358.15479395 394.23803597 358.18316841 398.18549061 C358.19821087 399.89062571 358.21865002 401.5957224 358.24469185 403.30072498 C358.28127633 405.7583412 358.29814522 408.21544376 358.31134224 410.67328358 C358.3268261 411.42977192 358.34230995 412.18626026 358.35826302 412.96567249 C358.35976657 417.74518384 357.64908858 420.98567812 355.01837349 425.13422108 C352.04203441 426.62239062 349.35917376 426.26390385 346.03674698 426.26844215 C345.30626024 426.27079438 344.57577351 426.27314661 343.82315081 426.27557012 C341.35021601 426.28228148 338.8773335 426.28180126 336.40439034 426.2813921 C334.62360042 426.28468938 332.84281125 426.28841466 331.06202304 426.29253358 C326.14878319 426.30257688 321.23555554 426.3062741 316.32230687 426.30892289 C311.03114058 426.31281898 305.73998402 426.32239769 300.44882393 426.33113575 C287.66198848 426.35091852 274.87515222 426.36096807 262.08830529 426.36986354 C256.07278505 426.37424295 250.05726569 426.3796106 244.04174614 426.38485241 C224.05581342 426.40186551 204.06988126 426.41636137 184.08394241 426.42360115 C178.89493115 426.42551117 173.70591989 426.42743148 168.51690865 426.42938709 C167.22714331 426.42987083 165.93737797 426.43035457 164.60852884 426.43085297 C143.69858434 426.43915958 122.78869694 426.46450678 101.8787774 426.49696777 C80.43105825 426.52999338 58.98336816 426.54804578 37.53562343 426.55124539 C25.48531358 426.55341452 13.43508701 426.56222208 1.38480186 426.58770657 C-8.87415891 426.60935209 -19.13301618 426.61749436 -29.3919972 426.60773978 C-34.62992678 426.60317735 -39.86764252 426.60519355 -45.10554314 426.62450123 C-49.89592356 426.64200748 -54.68593218 426.64123811 -59.47631587 426.62560394 C-61.2138707 426.62320867 -62.95145044 426.62764963 -64.68896697 426.63943259 C-67.04254278 426.654411 -69.39477699 426.64497839 -71.74831772 426.6292057 C-73.05802815 426.63018251 -74.36773859 426.63115932 -75.71713722 426.63216573 C-78.98162651 426.13422108 -78.98162651 426.13422108 -81.40224802 424.45545644 C-83.35862588 421.58013966 -83.48273898 419.96312683 -83.48499107 416.49947071 C-83.49542206 415.34445277 -83.50585305 414.18943483 -83.51660013 412.99941635 C-83.50767725 411.72978326 -83.49875436 410.46015017 -83.48956108 409.15204334 C-83.49416894 407.79025098 -83.50052109 406.42846359 -83.50847006 405.06668663 C-83.52520265 401.32079221 -83.51689946 397.57530425 -83.50452518 393.82940817 C-83.49549296 389.79116277 -83.5094353 385.75298837 -83.52044487 381.71475697 C-83.5382543 373.80238092 -83.53437936 365.89015643 -83.52279431 357.97777438 C-83.51376977 351.54863822 -83.51253173 345.11954461 -83.51688957 338.69040394 C-83.5175025 337.77623158 -83.51811544 336.86205922 -83.51874694 335.92018467 C-83.52002581 334.06320372 -83.52132266 332.20622278 -83.52263731 330.34924185 C-83.5340502 312.92626133 -83.52091829 295.50336493 -83.49943584 278.0803982 C-83.48156421 263.12271109 -83.48466812 248.16514814 -83.50311089 233.20746326 C-83.52450508 215.84787767 -83.5329515 198.48836585 -83.52066183 181.12876892 C-83.5193876 179.27852536 -83.51813012 177.4282818 -83.51688957 175.57803822 C-83.51627247 174.66762463 -83.51565537 173.75721104 -83.51501957 172.81920916 C-83.51156231 166.3959664 -83.51740309 159.97277033 -83.52680779 153.5495348 C-83.53801305 145.72434443 -83.53501884 137.89931461 -83.51368481 130.07414269 C-83.50315445 126.07970386 -83.4990861 122.08553293 -83.51228142 118.09109592 C-83.52417046 114.43688972 -83.51770127 110.78320061 -83.49637121 107.12904155 C-83.48976175 105.17570251 -83.50287247 103.22232779 -83.51660013 101.2690258 C-83.50616914 100.11400786 -83.49573815 98.95898993 -83.48499107 97.76897144 C-83.48434166 96.77019694 -83.48369226 95.77142244 -83.48302317 94.74238205 C-82.8368973 91.38136987 -81.67334536 90.19257251 -78.98162651 88.13422108 C-76.2307646 87.78482179 -73.89327091 87.66536928 -71.15350151 87.74359608 C-70.0299929 87.75208576 -70.0299929 87.75208576 -68.88378716 87.76074696 C-66.49907451 87.7830805 -64.11588243 87.83326722 -61.73162651 87.88422108 C-60.1118566 87.90429017 -58.49206305 87.92254023 -56.87225151 87.93890858 C-52.90812685 87.98293484 -48.94513419 88.0519381 -44.98162651 88.13422108 C-45.00257378 86.97374256 -45.02352104 85.81326405 -45.04510307 84.61761951 C-45.11754458 80.3089887 -45.16344122 76.00041163 -45.20135307 71.69134998 C-45.22145913 69.82700006 -45.24874831 67.96271313 -45.28338432 66.09857655 C-45.33194772 63.4175916 -45.35460489 60.73744084 -45.37225151 58.05609608 C-45.39289665 57.22366383 -45.41354179 56.39123158 -45.43481255 55.5335741 C-45.43623393 51.86155754 -45.37321642 49.75284727 -43.37811089 46.60101795 C-40.17266901 44.63908898 -37.9936019 44.67787063 -34.24725151 44.74359608 C-32.30398979 44.76293201 -32.30398979 44.76293201 -30.32147026 44.78265858 C-28.95817827 44.81607741 -27.59489702 44.84993717 -26.23162651 44.88422108 C-24.85274587 44.904294 -23.47383739 44.9225434 -22.09490776 44.93890858 C-18.72310907 44.9860666 -15.35271964 45.0518757 -11.98162651 45.13422108 C-11.99733696 44.01450916 -12.01304741 42.89479725 -12.02923393 41.74115467 C-12.08370545 37.57032996 -12.11803904 33.39953646 -12.14642143 29.22845936 C-12.16146891 27.42632216 -12.18191181 25.62422134 -12.20794487 23.82220936 C-12.24450672 21.22560087 -12.26139332 18.62947833 -12.27459526 16.03265858 C-12.29782104 14.83230473 -12.29782104 14.83230473 -12.32151604 13.6077013 C-12.32297431 8.71444574 -11.69973898 5.37432785 -8.98162651 1.13422108 C-6.00528743 -0.35394846 -3.32242678 0.00453831 0 0 Z " fill="#000101" transform="translate(82.98162651062012,42.86577892303467)"/>
<path d="M0 0 C134.64 0 269.28 0 408 0 C408 87.45 408 174.9 408 265 C400.12700045 258.25171467 400.12700045 258.25171467 397.02758789 255.12524414 C396.33319107 254.4275441 395.63879425 253.72984406 394.9233551 253.01100159 C394.19712448 252.27647263 393.47089386 251.54194366 392.72265625 250.78515625 C391.95247665 250.01119003 391.18229706 249.23722382 390.38877869 248.43980408 C387.12197146 245.15678267 383.86116959 241.86782055 380.59985352 238.5793457 C378.20538862 236.16668469 375.80784203 233.75711573 373.41015625 231.34765625 C372.68594986 230.61515152 371.96174347 229.88264679 371.21559143 229.12794495 C367.98213226 225.87917382 364.72976942 222.7214705 361.24389648 219.74389648 C356.03655461 215.25364033 351.23864886 210.35004489 346.39810181 205.4732666 C344.65025078 203.712475 342.89914028 201.95498136 341.1472168 200.19824219 C336.7996505 195.8374141 332.45758852 191.47111887 328.11535645 187.10498047 C324.4343432 183.40412928 320.75121443 179.70540744 317.06533813 176.00939941 C315.3529083 174.29055956 313.64355488 172.56870188 311.93432617 170.84667969 C306.99346685 165.88285706 302.04194147 160.98502787 296.68563843 156.46298218 C293.49557011 153.69429049 290.57778114 150.64211188 287.625 147.625 C286.41118271 146.38573581 285.19514371 145.14864259 283.9765625 143.9140625 C283.18886475 143.1089624 283.18886475 143.1089624 282.38525391 142.28759766 C280.39871947 140.44110794 279.02336922 140.00414615 276.3359375 139.52734375 C271.37190106 140.23067912 269.06332308 143.08922129 265.625 146.5625 C264.28851025 147.86275035 262.95127933 149.16223933 261.61328125 150.4609375 C260.98244629 151.08194336 260.35161133 151.70294922 259.70166016 152.34277344 C257.79731624 154.1973913 255.83302926 155.9604792 253.8125 157.6875 C250.47824701 160.55684626 247.23514133 163.52000229 244 166.5 C240.7214895 169.51930769 237.43418914 172.5220225 234.0625 175.4375 C229.93244815 179.01802312 225.9339593 182.73579762 221.92480469 186.45019531 C216.99354346 191.01596642 212.00702032 195.51744662 207 200 C201.59661762 204.8447128 196.21659155 209.71234428 190.875 214.625 C184.3878267 220.58596406 177.79576692 226.39349229 171 232 C166.99463751 230.40325466 164.37207564 227.58664218 161.44042969 224.54052734 C160.8967424 223.98428177 160.35305511 223.42803619 159.79289246 222.85493469 C158.61502378 221.64941276 157.43928164 220.44181021 156.26543427 219.23237228 C154.40470521 217.31827526 152.53525062 215.41313971 150.66265869 213.51065063 C145.3395962 208.10217055 140.0217871 202.68890535 134.73681641 197.24316406 C131.50106786 193.91028957 128.24604592 190.59733732 124.97763824 187.29649734 C123.73755519 186.03663642 122.50481609 184.76950217 121.27974701 183.49503708 C119.56366882 181.71132963 117.82408531 179.95410568 116.07714844 178.20068359 C115.57920273 177.67083359 115.08125702 177.14098358 114.56822205 176.59507751 C111.72593067 173.80031363 109.6699842 172.67299042 105.75881958 172.5978241 C101.91847106 173.00872321 100.71232666 173.29305511 98.0703125 175.96484375 C97.42570068 176.59527588 96.78108887 177.22570801 96.11694336 177.87524414 C95.45960205 178.55578857 94.80226074 179.23633301 94.125 179.9375 C92.71290613 181.33140474 91.30014833 182.7246372 89.88671875 184.1171875 C89.21431152 184.79233398 88.5419043 185.46748047 87.84912109 186.16308594 C85.61659352 188.38087541 83.29837561 190.48239854 80.9375 192.5625 C76.73271374 196.31348133 72.61212881 200.14821619 68.5 204 C63.55126849 208.63448736 58.56598105 213.21868472 53.51171875 217.73828125 C48.8582295 221.92859272 44.27312358 226.19346168 39.67773438 230.44726562 C31.80619825 237.73233107 23.92193891 245.00339988 16.0078125 252.2421875 C13.87065214 254.19830449 11.74201723 256.16331013 9.6171875 258.1328125 C8.78779663 258.89936157 8.78779663 258.89936157 7.94165039 259.68139648 C6.87389424 260.66850688 5.80790813 261.65753616 4.74389648 262.64868164 C1.11243126 266 1.11243126 266 0 266 C0 178.22 0 90.44 0 0 Z " fill="#AFDAFE" transform="translate(16,147)"/>
<path d="M0 0 C6.11100167 5.05085009 11.6678447 10.55519794 17.24609375 16.18359375 C18.22553818 17.16745578 19.20528546 18.15101639 20.18531799 19.1342926 C23.79330283 22.75552953 27.39579068 26.38221867 30.99841309 30.00878906 C34.05171768 33.08196851 37.10716182 36.15299153 40.1653614 39.22130013 C41.58307557 40.64540421 42.99768981 42.07259219 44.41221619 43.49986267 C48.14258339 47.24426853 51.85936301 50.94483387 55.87915039 54.37915039 C61.05198287 58.81992581 65.80260194 63.69151466 70.60189819 68.5267334 C72.34974922 70.287525 74.10085972 72.04501864 75.8527832 73.80175781 C80.2003495 78.1625859 84.54241148 82.52888113 88.88464355 86.89501953 C92.5656568 90.59587072 96.24878557 94.29459256 99.93466187 97.99060059 C101.6470917 99.70944044 103.35644512 101.43129812 105.06567383 103.15332031 C111.4051848 109.52296236 117.73736689 115.83667753 124.96875 121.203125 C127.5 123.25 127.5 123.25 132 129 C132 135.27 132 141.54 132 148 C34.65 148 -62.7 148 -163 148 C-158.62772317 143.62772317 -154.18906289 139.36129929 -149.6875 135.125 C-148.96626953 134.44308594 -148.24503906 133.76117188 -147.50195312 133.05859375 C-143.35461858 129.15303207 -139.14446636 125.3417307 -134.84204102 121.60791016 C-132.22676575 119.32504695 -129.67671318 116.97879637 -127.125 114.625 C-120.9868564 108.97650888 -114.7883192 103.39726689 -108.578125 97.828125 C-103.98551896 93.70355524 -99.41820551 89.55378107 -94.875 85.375 C-91.63782784 82.39781719 -88.38862271 79.44047144 -85.0625 76.5625 C-80.87890143 72.93787911 -76.8356539 69.16614933 -72.77758789 65.40258789 C-69.28928664 62.17324129 -65.7526582 59.01500963 -62.15625 55.90625 C-59.22759638 53.31715042 -56.36601823 50.65805319 -53.5 48 C-50.03712954 44.78840358 -46.57351686 41.5889722 -43 38.5 C-38.88795707 34.94316962 -34.9123038 31.24416316 -30.92456055 27.54956055 C-26.78506731 23.71691841 -22.6118716 19.92461992 -18.41015625 16.16015625 C-16.72670435 14.65132497 -15.04733576 13.13793087 -13.37109375 11.62109375 C-8.98503499 7.65337741 -4.58313251 3.73887126 0 0 Z " fill="#83B855" transform="translate(292,305)"/>
<path d="M0 0 C134.64 0 269.28 0 408 0 C408 100.98 408 201.96 408 306 C400.74 306 393.48 306 386 306 C385.99857498 302.57618958 385.99714996 299.15237915 385.99568176 295.62481689 C385.98031195 264.24525505 385.9402404 232.86581323 385.87314438 201.48631926 C385.86437737 197.37564552 385.85582761 193.26497135 385.84741211 189.15429688 C385.84573305 188.33591767 385.84405398 187.51753846 385.84232404 186.67435989 C385.81563665 173.41421001 385.80655772 160.15410336 385.80395857 146.89392939 C385.80090173 133.29302024 385.77898626 119.6922363 385.73947543 106.0913837 C385.71568181 97.69535394 385.70668994 89.29957394 385.71648689 80.90351507 C385.72179276 75.15007489 385.70882057 69.39685902 385.6813371 63.64348271 C385.66601123 60.32126917 385.66158171 56.99997732 385.67340279 53.67768478 C385.68494351 50.07898238 385.66602819 46.4817084 385.63923645 42.88311768 C385.64990971 41.82864921 385.66058297 40.77418074 385.67157966 39.68775868 C385.65814102 38.7253441 385.64470238 37.76292952 385.63085651 36.77135086 C385.62914777 35.52510874 385.62914777 35.52510874 385.62740451 34.25369 C384.67667543 30.83859084 382.9875847 29.80459171 380 28 C376.88456455 27.40295443 376.88456455 27.40295443 373.45016003 27.49219131 C372.47913319 27.48273569 372.47913319 27.48273569 371.48848966 27.47308904 C369.31611721 27.45680691 367.14484456 27.46899881 364.97245789 27.48101807 C363.40071119 27.47514346 361.82897022 27.46751676 360.25723964 27.458287 C355.93583782 27.43799004 351.61476358 27.44259017 347.2933358 27.45119452 C342.63417391 27.45613092 337.9750952 27.43806499 333.31596375 27.42277527 C325.24292295 27.39943867 317.16997203 27.39071581 309.09689903 27.39188385 C297.42457422 27.39355158 285.75236939 27.37323376 274.08007655 27.34752855 C255.14315259 27.30642289 236.20625017 27.28312837 217.26928711 27.27099609 C198.87245613 27.2591718 180.47566575 27.23898317 162.07885742 27.20751953 C160.37824037 27.20461538 160.37824037 27.20461538 158.64326742 27.20165256 C152.95567327 27.19188814 147.26807942 27.181959 141.5804857 27.17194796 C94.38700994 27.08909332 47.19353337 27.03542422 0 27 C0 18.09 0 9.18 0 0 Z " fill="#5E9FF8" transform="translate(54,104)"/>
<path d="M0 0 C134.64 0 269.28 0 408 0 C408 100.98 408 201.96 408 306 C402.06 306 396.12 306 390 306 C389.99503478 303.90142529 389.99503478 303.90142529 389.98996925 301.76045513 C389.91100564 268.5734742 389.82180638 235.38653698 389.71994839 202.19961847 C389.70742904 198.11769835 389.69499634 194.03577797 389.68261719 189.95385742 C389.6789182 188.73486699 389.6789182 188.73486699 389.67514448 187.49125049 C389.63538644 174.32097403 389.6026526 161.15068896 389.57250018 147.98038741 C389.54142093 134.47330875 389.50282674 120.96626676 389.45720994 107.45922929 C389.42928473 99.12008514 389.40726925 90.78096791 389.39273749 82.44178949 C389.38222107 76.72860291 389.3644261 71.01546836 389.34083296 65.30232092 C389.32742434 62.00277051 389.31837265 58.70330762 389.31578636 55.40372849 C389.31248343 51.83136148 389.29705952 48.25925069 389.2784729 44.68693542 C389.281375 43.11253631 389.281375 43.11253631 389.28433573 41.50633115 C389.27687024 40.5528744 389.26940475 39.59941766 389.26171303 38.61706829 C389.25943471 37.79193601 389.25715638 36.96680374 389.25480902 36.11666745 C389.12527667 33.69903049 389.12527667 33.69903049 387 31 C383.65800583 29.88600194 381.15631748 29.86936925 377.6337862 29.8613348 C376.98198917 29.85849258 376.33019215 29.85565036 375.65864369 29.85272202 C373.45945367 29.84435433 371.26031619 29.84310519 369.06111145 29.84178162 C367.47459767 29.83721768 365.88808509 29.8322179 364.30157393 29.82681805 C359.93015027 29.8132084 355.55873441 29.80581042 351.18729508 29.79939139 C346.47768304 29.79139984 341.76808728 29.77769779 337.05848694 29.76467896 C328.89485495 29.74289851 320.73122134 29.72475976 312.56757545 29.70907402 C300.76422184 29.68638967 288.96088625 29.65824486 277.15754791 29.62875474 C258.00876711 29.58106122 238.85997894 29.53780181 219.71118164 29.49731445 C201.10668362 29.45796848 182.50219215 29.41654441 163.89770508 29.37231445 C162.17837788 29.36822804 162.17837788 29.36822804 160.4243168 29.36405908 C154.67424526 29.35037975 148.92417382 29.33665945 143.17410243 29.32291877 C95.44941524 29.20892635 47.72471379 29.10219672 0 29 C0 19.43 0 9.86 0 0 Z " fill="#3F7FD9" transform="translate(88,59)"/>
<path d="M0 0 C4.08207345 1.61724151 6.80398063 4.54384801 9.8125 7.625 C10.30814453 8.12128906 10.80378906 8.61757813 11.31445312 9.12890625 C14.06840319 11.91475535 16.69283621 14.77779667 19.24511719 17.74951172 C22.75920782 21.7783514 26.45128423 25.58052666 30.24609375 29.34375 C30.90207047 29.99831177 31.55804718 30.65287354 32.23390198 31.32727051 C34.29940145 33.38723823 36.36837595 35.44367366 38.4375 37.5 C39.85114434 38.9086205 41.26455786 40.31747267 42.67773438 41.7265625 C46.11583149 45.15372133 49.55704656 48.57772019 53 52 C47.58976668 58.5548759 47.58976668 58.5548759 44.5 61.125 C40.74408386 64.32606489 37.11427463 67.64141084 33.5 71 C29.41473016 74.78927785 25.29604878 78.52173463 21.08203125 82.16796875 C17.86353123 85.00000723 14.71706589 87.91027948 11.56225586 90.81274414 C7.63220253 94.42676366 3.69441426 98.0299622 -0.33880615 101.52909851 C-3.05823558 103.95571395 -3.05823558 103.95571395 -5.37994385 106.80793762 C-10.42882183 112.38944404 -14.36858692 115.54404883 -22.02846909 116.1677351 C-26.64736293 116.31195652 -31.24162452 116.2145245 -35.859375 116.07421875 C-37.86000258 116.05366534 -39.86068608 116.03802477 -41.86138916 116.02705383 C-47.0907061 115.98534107 -52.31658423 115.87755436 -57.54455566 115.75531006 C-62.89381398 115.64214836 -68.24363605 115.59241014 -73.59375 115.53710938 C-84.06399908 115.41964781 -94.53171203 115.2322743 -105 115 C-105.14950237 112.13736946 -105.25793381 109.28264144 -105.34375 106.41796875 C-105.38983398 105.61548706 -105.43591797 104.81300537 -105.48339844 103.98620605 C-105.6066858 98.48730927 -104.66006702 95.63331131 -100.86925793 91.60996723 C-99.333443 90.15467564 -97.82846365 88.73291838 -96.14453125 87.44921875 C-93.73526802 85.57268702 -91.45599031 83.66211436 -89.1875 81.625 C-88.26130859 80.83609375 -88.26130859 80.83609375 -87.31640625 80.03125 C-84.01590673 77.13705143 -80.826388 74.12800213 -77.625 71.125 C-73.45009951 67.21112657 -69.26874435 63.31188877 -65 59.5 C-60.15681666 55.17170659 -55.41667626 50.73776298 -50.67456055 46.29956055 C-44.82116072 40.8240375 -38.91737296 35.40629081 -33 30 C-31.50148221 28.62746597 -30.00358379 27.25425907 -28.50585938 25.88085938 C-27.00813526 24.50745996 -25.50992864 23.13458821 -24.01171875 21.76171875 C-21.97094596 19.8911766 -19.93211523 18.01854625 -17.89453125 16.14453125 C-11.97884704 10.70691037 -6.02837986 5.31289033 0 0 Z " fill="#83B855" transform="translate(121,338)"/>
<path d="M0 0 C7.30313816 6.03639915 13.2177301 14.47811184 14.62841797 24.00952148 C15.54346998 36.95619192 13.5976791 47.18270854 5 57.3125 C-2.95096499 65.51316472 -11.62339175 69.93951058 -23.125 70.25 C-34.62227179 69.92877238 -42.73873395 65.99370567 -51.375 58.5625 C-59.70708952 48.87926083 -63.36359763 40.23571667 -63.03125 27.37109375 C-61.94114674 16.28424814 -56.33888277 7.94960755 -48.25 0.5625 C-34.29224947 -10.72916335 -14.27148689 -10.11195805 0 0 Z " fill="#030303" transform="translate(113.6875,203.125)"/>
<path d="M0 0 C5.50184778 3.28846074 10.04452296 8.11454362 12.4765625 14.09375 C13.5801721 22.66705405 12.7113166 30.06159912 7.4765625 37.09375 C2.65926268 41.7464496 -3.04899582 44.36412206 -9.7734375 44.53125 C-16.42291014 44.3968267 -21.19498471 42.12264204 -26.0859375 37.671875 C-31.16107198 32.05297612 -33.15192964 26.01185779 -32.859375 18.57421875 C-31.81656634 10.87441065 -27.35416609 6.58026317 -21.64453125 1.66015625 C-15.99748379 -2.5101311 -6.41710327 -2.30459436 0 0 Z " fill="#FBC523" transform="translate(99.5234375,212.90625)"/>
</svg>
