<svg width="24" height="24" fill="none" xmlns="http://www.w3.org/2000/svg"><path d="M11.951 21.003c-.26 0-.52-.06-.74-.23-2.66-1.94-5.43-4.08-7.48-7.02-.72-1.04-1.69-2.65-1.73-4.69-.05-2.45 1.34-4.7 3.46-5.62 2.13-.92 4.66-.38 6.45 1.38l.08.08c.08-.08.16-.16.24-.23 2-1.82 4.79-2.18 6.92-.9 2.21 1.33 3.29 4.07 2.65 6.68-.57 2.29-1.97 4.03-3.27 5.44-1.78 1.92-3.86 3.52-5.66 4.83-.22.16-.57.29-.93.29l.01-.01Zm-4.33-16c-.47 0-.93.09-1.36.28-1.38.6-2.29 2.1-2.26 3.74.02 1.15.45 2.26 1.37 3.59 1.77 2.55 4.23 4.5 6.63 6.27 1.72-1.26 3.51-2.66 5.07-4.35 1.18-1.28 2.34-2.72 2.8-4.56.44-1.76-.28-3.6-1.74-4.48-1.39-.84-3.18-.58-4.55.67-.19.17-.37.37-.54.56l-.99 1.04-1.54-1.5c-.83-.81-1.88-1.25-2.9-1.25l.01-.01Z" fill="#FAFAFA"/><path d="M12.577 20.318a1.14 1.14 0 0 1-.49.185h-.136a.686.686 0 0 1-.434-.126l-.011-.008c-2.659-1.94-5.366-4.037-7.364-6.902-.706-1.02-1.604-2.527-1.64-4.414C2.454 6.79 3.74 4.734 5.66 3.9c1.924-.83 4.24-.354 5.9 1.277l.078.078.353.354.354-.354c.082-.082.15-.15.216-.207l.007-.007c1.856-1.688 4.406-1.994 6.325-.841 2.01 1.21 3.014 3.72 2.423 6.132-.538 2.162-1.864 3.824-3.152 5.22-1.745 1.883-3.792 3.46-5.587 4.765Z" stroke="#FAFAFA"/></svg>