<svg xmlns="http://www.w3.org/2000/svg" viewBox="0 0 24 24" fill="none">
  <path d="M12 2C6.36 2 2 6.13 2 11.7c0 2.91 1.19 5.44 3.14 7.17.16.14.26.39.27.65l.05 2.02c.02.65.69 1.07 1.27.75l2.26-1.24c.16-.09.34-.14.52-.14.18 0 .36.05.53.13 1.23.53 2.58.82 4 .82 5.64 0 10-4.13 10-9.7C22 6.13 17.64 2 12 2zm6 7.46-2.93 4.67c-.47.73-1.47.92-2.17.37l-2.34-1.73a.6.6 0 0 0-.72 0l-3.16 2.4c-.42.33-.97-.17-.68-.63l2.93-4.67c.47-.73 1.47-.92 2.17-.37l2.34 1.73a.6.6 0 0 0 .72 0l3.16-2.4c.42-.33.97.17.68.63z" fill="#0084FF"/>
</svg>