<?xml version="1.0" encoding="UTF-8"?>
<svg version="1.1" xmlns="http://www.w3.org/2000/svg" width="128" height="128">
<path d="M0 0 C14.6095627 5.05411587 26.84109903 16.07548453 34.17285156 29.61035156 C43.41735521 50.51501173 40.03080694 77.87903955 38.69140625 100.1171875 C38.64404202 100.92708508 38.59667778 101.73698265 38.54787827 102.57142258 C38.40258053 104.86635715 38.22852626 107.15687549 38.04125977 109.44873047 C37.93854263 110.74277802 37.8358255 112.03682556 37.72999573 113.37008667 C36.75321713 118.22713106 35.30803526 122.04895447 31.45293617 125.3077755 C27.21523083 128.01548923 23.2181899 128.57647885 18.23217773 128.51757812 C17.11856369 128.52809204 17.11856369 128.52809204 15.98245239 128.53881836 C13.54910948 128.55630237 11.11694672 128.54481205 8.68359375 128.53125 C6.98161091 128.53394741 5.27962957 128.5378319 3.57765198 128.54284668 C0.0194728 128.54872845 -3.53830339 128.54022066 -7.09643555 128.52148438 C-11.64836168 128.49867791 -16.1993452 128.51183656 -20.75123692 128.53577423 C-24.26266029 128.55025333 -27.77386147 128.54561691 -31.28529167 128.53526306 C-32.96335907 128.5326025 -34.64144691 128.53584188 -36.31949043 128.54518127 C-38.66739203 128.55538412 -41.01378272 128.53979665 -43.36157227 128.51757812 C-44.04901016 128.52567505 -44.73644806 128.53377197 -45.44471741 128.54211426 C-50.39084377 128.45575675 -53.18546484 127.08230276 -57 124 C-60.83296096 119.02751011 -62.13727713 115.41523233 -62.09765625 109.234375 C-62.09443359 108.34492187 -62.09121094 107.45546875 -62.08789062 106.5390625 C-62.07951172 105.61867188 -62.07113281 104.69828125 -62.0625 103.75 C-62.05798828 102.81414062 -62.05347656 101.87828125 -62.04882812 100.9140625 C-62.03706918 98.60930959 -62.02063426 96.30468773 -62 94 C-62.60062256 94.00523682 -63.20124512 94.01047363 -63.82006836 94.01586914 C-66.52586838 94.03658014 -69.23165177 94.04964125 -71.9375 94.0625 C-72.88302734 94.07087891 -73.82855469 94.07925781 -74.80273438 94.08789062 C-76.15141602 94.09272461 -76.15141602 94.09272461 -77.52734375 94.09765625 C-78.35999756 94.10289307 -79.19265137 94.10812988 -80.05053711 94.11352539 C-82 94 -82 94 -83 93 C-83.11340974 90.28445608 -83.1641802 87.59529957 -83.16796875 84.87890625 C-83.17129715 84.06381088 -83.17462555 83.24871552 -83.17805481 82.40892029 C-83.18312742 80.68139207 -83.18546303 78.95385402 -83.18530273 77.22631836 C-83.18748792 74.57714755 -83.20563621 71.92839384 -83.22460938 69.27929688 C-83.22754344 67.6041681 -83.22952815 65.92903733 -83.23046875 64.25390625 C-83.23765427 63.45803604 -83.24483978 62.66216583 -83.25224304 61.84217834 C-83.22882227 56.22882227 -83.22882227 56.22882227 -81 54 C-79.02880859 53.77294922 -79.02880859 53.77294922 -76.6484375 53.8046875 C-75.79765625 53.81113281 -74.946875 53.81757812 -74.0703125 53.82421875 C-73.18085937 53.84097656 -72.29140625 53.85773437 -71.375 53.875 C-70.02921875 53.88853516 -70.02921875 53.88853516 -68.65625 53.90234375 C-66.43723414 53.9259503 -64.21874923 53.9588769 -62 54 C-62.01571045 52.83017578 -62.0314209 51.66035156 -62.04760742 50.45507812 C-62.10218711 46.08665945 -62.13645153 41.71827053 -62.16479492 37.34960938 C-62.17981793 35.46414103 -62.20024231 33.57870725 -62.22631836 31.69335938 C-62.26298863 28.9725691 -62.27979146 26.25224359 -62.29296875 23.53125 C-62.30845261 22.69758911 -62.32393646 21.86392822 -62.33988953 21.00500488 C-62.34156445 15.08991464 -61.77364701 8.9872959 -57.54777527 4.43591309 C-44.45023978 -6.73505065 -15.54691837 -3.80237605 0 0 Z " fill="#E42429" transform="translate(87,0)"/>
<path d="M0 0 C0.83901352 0.00247742 1.67802704 0.00495483 2.54246521 0.00750732 C3.42551331 0.00239639 4.3085614 -0.00271454 5.21836853 -0.00798035 C8.14751396 -0.02191996 11.07642525 -0.02091629 14.00559998 -0.01861572 C16.03579802 -0.0225003 18.06599524 -0.02683447 20.09619141 -0.03160095 C24.35581596 -0.0390726 28.61535764 -0.03876508 32.87498474 -0.0335083 C38.34077358 -0.02771288 43.80622364 -0.04464192 49.27195644 -0.06785297 C53.4660542 -0.08256621 57.66006993 -0.0834653 61.85418892 -0.08034325 C63.86967197 -0.08085769 65.88515947 -0.08611835 67.9006176 -0.09615517 C70.71635488 -0.1084554 73.53142654 -0.10176654 76.34715271 -0.09014893 C77.184142 -0.09779266 78.02113129 -0.1054364 78.88348389 -0.11331177 C84.55755309 -0.06141638 84.55755309 -0.06141638 86.72386265 1.58544636 C88.87630935 4.42612293 88.41515225 7.73948518 88.37278748 11.16107178 C88.37353523 12.31288185 88.37353523 12.31288185 88.3742981 13.48796082 C88.37195956 15.10941153 88.36224392 16.73086601 88.34568787 18.35223389 C88.32206032 20.83897196 88.32513246 23.32464036 88.33177185 25.8114624 C88.32619616 27.38633861 88.31908697 28.96121029 88.31028748 30.53607178 C88.31119888 31.28192032 88.31211029 32.02776886 88.31304932 32.79621887 C88.24054913 38.05112262 88.24054913 38.05112262 86.00950623 40.28216553 C83.06223487 40.47573533 80.20925518 40.54432968 77.26121521 40.52508545 C75.90256348 40.52793297 75.90256348 40.52793297 74.51646423 40.53083801 C71.51275568 40.53455263 68.50928716 40.52383261 65.50559998 40.51263428 C63.42577137 40.51144285 61.34594222 40.51098924 59.26611328 40.51124573 C54.90393209 40.50967972 50.54183283 40.50138054 46.17967224 40.48797607 C40.57479109 40.47097554 34.97 40.46716196 29.36509609 40.46792126 C25.06986626 40.46764997 20.7746563 40.46217562 16.47943306 40.45491982 C14.41206577 40.45172717 12.34469621 40.44976436 10.27732658 40.44902611 C7.39431252 40.44686942 4.51139599 40.43814014 1.62840271 40.4274292 C0.76552139 40.42788239 -0.09735992 40.42833557 -0.98638916 40.42880249 C-6.87601963 40.39663967 -6.87601963 40.39663967 -7.99049377 39.28216553 C-8.10390352 36.5666216 -8.15467397 33.87746509 -8.15846252 31.16107178 C-8.16179092 30.34597641 -8.16511932 29.53088104 -8.16854858 28.69108582 C-8.17362119 26.9635576 -8.17595681 25.23601954 -8.17579651 23.50848389 C-8.17798169 20.85931308 -8.19612999 18.21055937 -8.21510315 15.5614624 C-8.21803721 13.88633362 -8.22002192 12.21120286 -8.22096252 10.53607178 C-8.22814804 9.74020157 -8.23533356 8.94433136 -8.24273682 8.12434387 C-8.21350095 1.11725885 -6.96767098 0.06460475 0 0 Z " fill="#B82024" transform="translate(11.990493774414063,53.71783447265625)"/>
<path d="M0 0 C3.1300133 1.389292 5.25386617 3.00533553 7.66699219 5.42407227 C8.71762848 6.47009361 8.71762848 6.47009361 9.78948975 7.5372467 C10.53442688 8.28936935 11.27936401 9.041492 12.046875 9.81640625 C13.20367767 10.97389626 13.20367767 10.97389626 14.3838501 12.1547699 C16.01006367 13.78400138 17.63384926 15.41565946 19.25537109 17.04956055 C21.74913373 19.56162737 24.25085368 22.06555244 26.75390625 24.56835938 C28.33120295 26.15056949 29.90804196 27.73323605 31.484375 29.31640625 C32.23740906 30.07055313 32.99044312 30.82470001 33.76629639 31.60169983 C34.45411194 32.29589523 35.14192749 32.99009064 35.85058594 33.70532227 C36.46029236 34.31884048 37.06999878 34.9323587 37.69818115 35.56446838 C39 37 39 37 39 38 C33.76728431 38.07403712 28.53487199 38.12854783 23.30175781 38.16479492 C21.52077933 38.17990173 19.73983816 38.20038835 17.95898438 38.22631836 C15.40225022 38.26261943 12.8460069 38.27970688 10.2890625 38.29296875 C9.49005524 38.30845261 8.69104797 38.32393646 7.86782837 38.33988953 C5.62353516 38.34057617 5.62353516 38.34057617 2 38 C-0.49336211 34.25995683 -0.25481228 31.37438391 -0.1953125 27.05078125 C-0.1924826 26.27816452 -0.18965271 25.50554779 -0.18673706 24.70951843 C-0.17554878 22.24368757 -0.15044703 19.77822094 -0.125 17.3125 C-0.11496843 15.63997921 -0.10584289 13.96745272 -0.09765625 12.29492188 C-0.07561392 8.19647441 -0.04109363 4.09829894 0 0 Z " fill="#B91D21" transform="translate(85,0)"/>
<path d="M0 0 C4.23160079 0.03632275 6.90742162 0.44654716 10.25 3.25 C11.80799897 6.36599794 11.55803114 9.64404401 11.625 13.0625 C11.66238281 13.77470703 11.69976562 14.48691406 11.73828125 15.22070312 C11.79908653 18.8723981 11.33388726 21.10753947 9.4765625 24.26171875 C4.58377726 27.27676437 -0.1475675 26.65208846 -5.75 26.25 C-5.77886751 22.10418113 -5.79675327 17.95838784 -5.8125 13.8125 C-5.82087891 12.62849609 -5.82925781 11.44449219 -5.83789062 10.22460938 C-5.84111328 9.09990234 -5.84433594 7.97519531 -5.84765625 6.81640625 C-5.85289307 5.77427979 -5.85812988 4.73215332 -5.86352539 3.65844727 C-5.66459431 -0.56188633 -3.76641318 0.06685941 0 0 Z " fill="#FCF7F7" transform="translate(48.75,60.75)"/>
<path d="M0 0 C3.59166563 0.04637732 6.0076386 0.29455581 8.9375 2.4375 C11.3125 5.375 11.3125 5.375 11.9375 8.875 C11.22813321 12.84745401 10.14018293 14.54731707 7.3125 17.375 C4.35585481 18.8533226 1.57020263 18.43532783 -1.6875 18.375 C-1.6875 20.685 -1.6875 22.995 -1.6875 25.375 C-3.0075 25.705 -4.3275 26.035 -5.6875 26.375 C-5.71636751 22.22918113 -5.73425327 18.08338784 -5.75 13.9375 C-5.75837891 12.75349609 -5.76675781 11.56949219 -5.77539062 10.34960938 C-5.77861328 9.22490234 -5.78183594 8.10019531 -5.78515625 6.94140625 C-5.79039307 5.89927979 -5.79562988 4.85715332 -5.80102539 3.78344727 C-5.60471866 -0.38121059 -3.74496092 0.14554407 0 0 Z " fill="#FCF5F5" transform="translate(26.6875,60.625)"/>
<path d="M0 0 C5.28 0 10.56 0 16 0 C16.33 1.32 16.66 2.64 17 4 C12.71 4 8.42 4 4 4 C4 5.98 4 7.96 4 10 C7.63 10 11.26 10 15 10 C15 11.32 15 12.64 15 14 C11.37 14 7.74 14 4 14 C4 17.63 4 21.26 4 25 C2.68 25.33 1.36 25.66 0 26 C0 17.42 0 8.84 0 0 Z " fill="#FBF5F5" transform="translate(66,61)"/>
<path d="M0 0 C6 0 6 0 9 2 C9.36328125 5.1875 9.36328125 5.1875 9.3125 9 C9.30863281 10.258125 9.30476563 11.51625 9.30078125 12.8125 C9 16 9 16 7 18 C4.69 18 2.38 18 0 18 C0 12.06 0 6.12 0 0 Z " fill="#B92327" transform="translate(47,65)"/>
<path d="M0 0 C5.41139241 -0.36075949 5.41139241 -0.36075949 7.9375 1.1875 C9 3 9 3 8.8125 5.5625 C8 8 8 8 6 10 C2.875 10.125 2.875 10.125 0 10 C0 6.7 0 3.4 0 0 Z " fill="#BB2A2E" transform="translate(25,65)"/>
</svg>
