<svg width="25" height="24" xmlns="http://www.w3.org/2000/svg">
  <path d="M15.3 14.132a.438.438 0 0 1 0 .736l-4.2 2.574c-.267.164-.6-.04-.6-.367v-5.15c0-.327.333-.53.6-.368l4.2 2.575Z" fill="#FAFAFA"/>
  <path fill-rule="evenodd" clip-rule="evenodd" d="M8.5 2a6 6 0 0 0-6 6v8a6 6 0 0 0 6 6h8a6 6 0 0 0 6-6V8a6 6 0 0 0-6-6h-8Zm8 2h-1.234l1.8 3h3.308A4.002 4.002 0 0 0 16.5 4Zm4 5h-16v7a4 4 0 0 0 4 4h8a4 4 0 0 0 4-4V9ZM4.626 7h4.108L7.088 4.256A4.009 4.009 0 0 0 4.626 7Zm6.44 0h3.668l-1.8-3H9.266l1.8 3Z" fill="#FAFAFA"/>
</svg>
