<svg xmlns="http://www.w3.org/2000/svg" viewBox="0 0 500 500" fill="none">
  <!-- Smartphone -->
  <rect x="150" y="100" width="200" height="350" rx="20" fill="#f8f9fa" stroke="#333" stroke-width="8"/>
  <rect x="170" y="130" width="160" height="280" rx="5" fill="#e9ecef"/>

  <!-- Tela do smartphone -->
  <rect x="180" y="140" width="140" height="260" rx="2" fill="#fff"/>

  <!-- Ícones de redes sociais -->
  <circle cx="210" cy="180" r="15" fill="#E1306C"/>
  <path d="M210 175v10M205 180h10" stroke="white" stroke-width="2" stroke-linecap="round"/>

  <circle cx="250" cy="180" r="15" fill="#1877F2"/>
  <path d="M250 175v10M245 180h10" stroke="white" stroke-width="2" stroke-linecap="round"/>

  <circle cx="290" cy="180" r="15" fill="#25D366"/>
  <path d="M290 175v10M285 180h10" stroke="white" stroke-width="2" stroke-linecap="round"/>

  <!-- Mensagens -->
  <rect x="190" y="220" width="120" height="20" rx="10" fill="#e9ecef"/>
  <rect x="190" y="250" width="100" height="20" rx="10" fill="#e9ecef"/>
  <rect x="210" y="280" width="100" height="20" rx="10" fill="#dee2e6"/>
  <rect x="190" y="310" width="80" height="20" rx="10" fill="#e9ecef"/>
  <rect x="230" y="340" width="80" height="20" rx="10" fill="#dee2e6"/>

  <!-- Conexões -->
  <path d="M320 180c40 0 70 30 70 70s-30 70-70 70" stroke="#6c757d" stroke-width="3" stroke-dasharray="5 5"/>
  <path d="M180 180c-40 0-70 30-70 70s30 70 70 70" stroke="#6c757d" stroke-width="3" stroke-dasharray="5 5"/>

  <!-- Nuvem -->
  <path d="M250 80c-20 0-36.6 16.3-36.6 36.3 0 1.7.1 3.3.3 4.9-1.3-.2-2.6-.2-4-.2-17.1 0-31 13.9-31 31s13.9 31 31 31h80.6c17.1 0 31-13.9 31-31s-13.9-31-31-31c-1.3 0-2.7.1-4 .2.2-1.6.3-3.3.3-4.9 0-20-16.6-36.3-36.6-36.3z" fill="#f1f3f5" stroke="#adb5bd" stroke-width="3"/>

  <!-- Círculos decorativos -->
  <circle cx="120" cy="350" r="25" fill="#e9ecef"/>
  <circle cx="380" cy="350" r="25" fill="#e9ecef"/>
  <circle cx="120" cy="350" r="15" fill="#dee2e6"/>
  <circle cx="380" cy="350" r="15" fill="#dee2e6"/>

  <!-- Linhas de conexão -->
  <path d="M120 350c0-30 30-50 60-50" stroke="#6c757d" stroke-width="2"/>
  <path d="M380 350c0-30-30-50-60-50" stroke="#6c757d" stroke-width="2"/>
</svg>