<?xml version="1.0" encoding="UTF-8"?>
<svg version="1.1" xmlns="http://www.w3.org/2000/svg" width="512" height="512">
<path d="M0 0 C0.78568866 -0.00465992 1.57137732 -0.00931984 2.38087472 -0.01412097 C5.02370061 -0.02610824 7.66601594 -0.01666125 10.30884647 -0.00736332 C12.21867136 -0.0115346 14.12849376 -0.01701098 16.03831154 -0.02368313 C21.29440892 -0.0381834 26.55035011 -0.03387873 31.80645621 -0.02651632 C37.47185448 -0.02179827 43.1372183 -0.03428238 48.80260563 -0.04453373 C59.90456071 -0.06175375 71.00645927 -0.06255512 82.10842424 -0.05732083 C91.1295228 -0.05328393 100.15060463 -0.05471696 109.17170238 -0.06006908 C111.09557609 -0.06119172 111.09557609 -0.06119172 113.05831592 -0.06233703 C115.66364487 -0.06386846 118.26897381 -0.06540681 120.87430275 -0.066952 C138.37406259 -0.0767849 155.8738124 -0.08094013 173.3735733 -0.07332611 C174.05805621 -0.07302894 174.74253912 -0.07273176 175.44776394 -0.07242559 C181.006467 -0.06997658 186.56516999 -0.06736503 192.12387297 -0.06474145 C213.80853079 -0.05463823 235.49311119 -0.06299496 257.17775822 -0.086236 C281.53426612 -0.11229836 305.89071628 -0.12510978 330.2472406 -0.11804825 C343.14598879 -0.11455044 356.04467339 -0.11682515 368.94341183 -0.13429928 C379.92359447 -0.14898944 390.90366875 -0.14969846 401.8838492 -0.13222837 C407.48860765 -0.12368981 413.09317223 -0.12163834 418.6979208 -0.13687992 C423.82568465 -0.15065204 428.9530872 -0.14606062 434.08082975 -0.12664068 C435.93878174 -0.12285731 437.79676217 -0.12586936 439.65468901 -0.13625234 C442.17540348 -0.14934084 444.69485583 -0.13791249 447.21551514 -0.12025452 C448.30394607 -0.13473028 448.30394607 -0.13473028 449.4143655 -0.14949849 C454.45785635 -0.07668379 457.33929054 1.13153085 461.17067814 4.38031673 C463.93780739 7.96214749 464.54459574 10.53887943 464.53588581 15.0204134 C464.54102546 16.15118852 464.54616511 17.28196364 464.5514605 18.44700468 C464.54183809 19.68444193 464.53221568 20.92187918 464.52230167 22.19681454 C464.52486347 24.1742954 464.52486347 24.1742954 464.52747703 26.19172537 C464.5319322 29.84972772 464.51782102 33.50746042 464.50080466 37.16541719 C464.48578696 41.11096213 464.48819529 45.0564986 464.48877811 49.00206661 C464.48770218 55.83917587 464.47646631 62.67620704 464.4591074 69.51329327 C464.4323551 80.31962797 464.43424286 91.12586843 464.44039249 101.93222713 C464.4421151 105.62955182 464.44360206 109.32687656 464.44498158 113.02420139 C464.44532729 113.94818336 464.44567301 114.87216532 464.4460292 115.82414674 C464.44945054 126.34059378 464.44572646 136.85703532 464.43972111 147.3734808 C464.43917904 148.33478569 464.43863698 149.29609058 464.43807849 150.28652592 C464.42870944 165.86906677 464.40338621 181.45155597 464.3748205 197.03407149 C464.34617159 213.03189012 464.3443785 229.02957381 464.36503673 245.02740443 C464.3767318 254.89563438 464.36597251 264.76333633 464.32641879 274.63149633 C464.30111365 281.39316353 464.30104721 288.15453123 464.32087788 294.91621564 C464.3315035 298.81810383 464.33065248 302.71911633 464.29923916 306.6209116 C464.27069041 310.19414518 464.27443421 313.76584699 464.30367991 317.33906145 C464.31086191 319.2414775 464.28353353 321.14392754 464.25492215 323.04614198 C464.33273863 328.72341649 464.44615709 332.3736962 468.57620716 336.51191807 C469.76768053 337.47636687 470.96532087 338.43327706 472.17067814 339.38031673 C491.77839258 363.89803545 497.46191588 391.93354861 494.9685297 422.89008236 C491.78684737 448.70373142 476.04192153 473.24991028 456.29567814 489.63031673 C431.36261662 508.58573575 403.33896268 515.24689159 372.37819767 512.09613705 C346.57403963 508.2653108 321.52713369 493.18078064 305.71315861 472.47162533 C294.17067814 456.34545973 294.17067814 456.34545973 294.17067814 451.38031673 C293.53393362 451.38183562 292.89718911 451.3833545 292.24114931 451.3849194 C254.51346393 451.47440627 216.78579424 451.54305009 179.05802449 451.58457805 C174.52933204 451.58958096 170.0006398 451.59475824 165.47194767 451.6000433 C164.57035587 451.60109254 163.66876407 451.60214178 162.73985131 451.60322282 C148.13598803 451.62063427 133.53218765 451.65217603 118.9283617 451.68892792 C103.94663225 451.72631676 88.96493576 451.74854823 73.98316157 451.75667071 C64.73648148 451.76216276 55.48997917 451.77951702 46.2433538 451.8119826 C39.90501921 451.8331051 33.5667767 451.83952192 27.22840945 451.83432224 C23.56991276 451.83175691 19.911727 451.83572539 16.25328541 451.85713863 C12.2878391 451.88017948 8.32279916 451.87227904 4.35729313 451.8613348 C3.19970379 451.87298617 2.04211446 451.88463753 0.84944665 451.89664197 C-5.16665549 451.85160769 -9.23381978 451.70416165 -13.82932186 447.38031673 C-16.92605546 443.22823978 -17.20561196 440.14588309 -17.2096386 435.01951599 C-17.21429851 434.28447854 -17.21895843 433.54944109 -17.22375956 432.79212978 C-17.23573948 430.32159399 -17.2263028 427.8516051 -17.21700191 425.38106441 C-17.22117352 423.59498332 -17.22665009 421.80890488 -17.23332173 420.02283138 C-17.24781773 415.10877777 -17.24351866 410.19489128 -17.23615491 405.28082836 C-17.23143581 399.98353064 -17.24392191 394.68626974 -17.25417233 389.38898373 C-17.27139028 379.0089316 -17.27219415 368.62893993 -17.26695942 358.24887723 C-17.26292213 349.8141628 -17.26435602 341.37946627 -17.26970768 332.94475269 C-17.2704561 331.74543106 -17.27120452 330.54610943 -17.27197563 329.31044472 C-17.27350706 326.87422578 -17.27504541 324.43800683 -17.27659059 322.00178789 C-17.29032642 299.14265998 -17.28487029 276.28356626 -17.27340538 253.42443912 C-17.26347138 232.4998635 -17.27641467 211.57537629 -17.30033957 190.6508143 C-17.3247067 169.17812219 -17.33434435 147.70547129 -17.32768685 126.23276561 C-17.32418938 114.17238605 -17.32646146 102.1120745 -17.34393787 90.05170536 C-17.35863001 79.78517729 -17.35933447 69.51876513 -17.34186696 59.25223941 C-17.33333002 54.01202421 -17.331273 48.77201633 -17.34651852 43.53181171 C-17.36029547 38.73711517 -17.355693 33.94280492 -17.33627928 29.14813112 C-17.33249739 27.41130895 -17.33550378 25.67445635 -17.34589093 23.93766112 C-17.35898972 21.58029158 -17.34754249 19.22426943 -17.32989311 16.86695862 C-17.32973211 14.90141481 -17.32973211 14.90141481 -17.32956785 12.89616305 C-16.59908771 7.76217706 -14.54957899 4.78901223 -10.56865448 1.52908653 C-7.01555734 0.03905547 -3.78762271 -0.03505635 0 0 Z " fill="#575F64" transform="translate(16.82932186126709,-0.38031673431396484)"/>
<path d="M0 0 C0.78568866 -0.00465992 1.57137732 -0.00931984 2.38087472 -0.01412097 C5.02370061 -0.02610824 7.66601594 -0.01666125 10.30884647 -0.00736332 C12.21867136 -0.0115346 14.12849376 -0.01701098 16.03831154 -0.02368313 C21.29440892 -0.0381834 26.55035011 -0.03387873 31.80645621 -0.02651632 C37.47185448 -0.02179827 43.1372183 -0.03428238 48.80260563 -0.04453373 C59.90456071 -0.06175375 71.00645927 -0.06255512 82.10842424 -0.05732083 C91.1295228 -0.05328393 100.15060463 -0.05471696 109.17170238 -0.06006908 C111.09557609 -0.06119172 111.09557609 -0.06119172 113.05831592 -0.06233703 C115.66364487 -0.06386846 118.26897381 -0.06540681 120.87430275 -0.066952 C138.37406259 -0.0767849 155.8738124 -0.08094013 173.3735733 -0.07332611 C174.05805621 -0.07302894 174.74253912 -0.07273176 175.44776394 -0.07242559 C181.006467 -0.06997658 186.56516999 -0.06736503 192.12387297 -0.06474145 C213.80853079 -0.05463823 235.49311119 -0.06299496 257.17775822 -0.086236 C281.53426612 -0.11229836 305.89071628 -0.12510978 330.2472406 -0.11804825 C343.14598879 -0.11455044 356.04467339 -0.11682515 368.94341183 -0.13429928 C379.92359447 -0.14898944 390.90366875 -0.14969846 401.8838492 -0.13222837 C407.48860765 -0.12368981 413.09317223 -0.12163834 418.6979208 -0.13687992 C423.82568465 -0.15065204 428.9530872 -0.14606062 434.08082975 -0.12664068 C435.93878174 -0.12285731 437.79676217 -0.12586936 439.65468901 -0.13625234 C442.17540348 -0.14934084 444.69485583 -0.13791249 447.21551514 -0.12025452 C448.30394607 -0.13473028 448.30394607 -0.13473028 449.4143655 -0.14949849 C454.45785635 -0.07668379 457.33929054 1.13153085 461.17067814 4.38031673 C463.94268347 7.96710657 464.54504239 10.55184848 464.53982162 15.03996658 C464.54579477 16.1750586 464.55176792 17.31015061 464.55792207 18.47963935 C464.54918354 19.72185144 464.54044502 20.96406354 464.53144169 22.24391842 C464.53275012 23.58054608 464.53537724 24.91717299 464.53920919 26.2537958 C464.54591877 29.925306 464.53391513 33.59655376 464.518875 37.26803052 C464.50592567 41.22776141 464.51030332 45.18747737 464.51258183 49.14722347 C464.51415526 56.00726804 464.50473875 62.86722705 464.48786831 69.7272501 C464.46349236 79.64569103 464.45567448 89.56409057 464.45190433 99.48255821 C464.44533765 115.57439636 464.42537058 131.6661889 464.3969965 147.75800228 C464.36946156 163.39016142 464.34822521 179.02230817 464.33547306 194.65448666 C464.33468489 195.61797261 464.33389672 196.58145856 464.33308467 197.57414106 C464.32916957 202.40764283 464.32537844 207.24114468 464.32164896 212.07464659 C464.29054628 252.17656858 464.23770455 292.27843965 464.17067814 332.38031673 C463.69976246 331.97356716 463.22884678 331.56681759 462.74366093 331.14774227 C462.12072651 330.61138149 461.49779209 330.07502071 460.85598087 329.52240658 C460.24069019 328.99190701 459.62539951 328.46140743 458.99146366 327.91483212 C444.83723985 315.9859839 428.90823391 309.03574846 411.17067814 304.38031673 C408.83642702 303.71687073 406.50295398 303.05067356 404.17067814 302.38031673 C404.16921158 301.1901816 404.16774502 300.00004646 404.16623402 298.77384663 C404.13053228 270.52264266 404.07429149 242.27153063 403.99275719 214.020422 C403.98273973 210.54321937 403.9728956 207.06601626 403.96315861 203.58881283 C403.96121723 202.89656406 403.95927586 202.2043153 403.95727566 201.4910893 C403.92625428 190.28219061 403.90927463 179.07331239 403.89748392 167.86437885 C403.88507305 156.36302081 403.85727572 144.86178607 403.81606507 133.3604933 C403.79340566 126.90034254 403.77777015 120.44034521 403.77879429 113.98015118 C403.77953824 107.90132413 403.76169366 101.82283687 403.72951031 95.74409771 C403.72098218 93.51162928 403.71928103 91.27912287 403.72487545 89.04664516 C403.73149282 86.00051785 403.7136482 82.95547874 403.68966007 79.90946102 C403.69742049 79.02423807 403.70518091 78.13901511 403.71317649 77.22696722 C403.63767974 71.81845391 402.87893126 68.59578106 399.17067814 64.38031673 C395.42540699 61.68124983 392.8516119 61.00459576 388.26229286 61 C387.07168332 60.99156006 385.88107377 60.98312012 384.65438515 60.97442442 C383.35011965 60.98043447 382.04585416 60.98644451 380.70206547 60.99263668 C379.29958988 60.98846369 377.89711767 60.98298636 376.49465173 60.97631687 C372.64092988 60.96183886 368.78742146 60.96611427 364.93368781 60.97348368 C360.77750068 60.97820724 356.62136026 60.96571272 352.46518803 60.95546627 C344.32303384 60.93825704 336.18095675 60.93744264 328.0387891 60.94267917 C321.42186501 60.94671811 314.80496373 60.94528061 308.18804073 60.93993092 C306.77622118 60.93880828 306.77622118 60.93880828 305.33588002 60.93766297 C303.42390207 60.93613152 301.51192413 60.93459317 299.59994619 60.933048 C281.66378155 60.91931531 263.72766051 60.92476608 245.79149687 60.93623322 C229.3773141 60.94616674 212.96324403 60.93322422 196.54907865 60.90929902 C179.70039475 60.88492524 162.85176337 60.87529589 146.00306219 60.88195175 C136.54162344 60.88544776 127.08027138 60.88318676 117.61884594 60.86570072 C109.56464419 60.85100026 101.51059019 60.85031502 93.4563914 60.86777163 C89.34625495 60.87630179 85.23638269 60.87838229 81.1262598 60.86312008 C77.36406206 60.84932265 73.60235606 60.85397174 69.84018712 60.87335932 C67.83368888 60.87892432 65.8271659 60.86480664 63.82071453 60.85000521 C55.14524119 60.83448435 55.14524119 60.83448435 48.17067814 65.38031673 C45.62874173 68.98834981 44.79519749 71.41887043 44.7903614 75.81738758 C44.78192146 76.90287856 44.77348152 77.98836954 44.76478583 79.10675418 C44.77079587 80.29360911 44.77680592 81.48046404 44.78299809 82.70328426 C44.77761255 83.96851866 44.77222701 85.23375305 44.76667827 86.53732789 C44.75220832 90.04707856 44.75647313 93.55659473 44.76384509 97.06635833 C44.7685707 100.85241995 44.75607224 104.63843039 44.74582767 108.42447567 C44.72862196 115.84105289 44.72780339 123.25754546 44.73304058 130.67413746 C44.73708048 136.70228552 44.73564086 142.73040855 44.73029232 148.75855541 C44.72916969 150.04505062 44.72916969 150.04505062 44.72802437 151.35753564 C44.72649291 153.09983786 44.72495456 154.84214007 44.72340941 156.58444227 C44.70967777 172.92781603 44.71512655 189.27114193 44.72659462 205.6145146 C44.73652608 220.56659108 44.72358903 235.5185438 44.69966043 250.47060119 C44.67527776 265.82202463 44.66565961 281.17339042 44.67231315 296.52483284 C44.67580744 305.14402402 44.67355962 313.76312002 44.65606213 322.38229656 C44.64135047 329.72025563 44.64069099 337.05805251 44.65813304 344.39600836 C44.66665435 348.13970451 44.66876534 351.88311081 44.65348148 355.62679195 C44.63711515 359.68589099 44.65176106 363.7442887 44.66947269 367.80338192 C44.65986769 368.9857754 44.65026268 370.16816889 44.64036661 371.38639247 C44.69908611 377.91215528 45.07917743 382.17630914 49.17067814 387.38031673 C53.47639654 391.18522535 58.08047326 390.80898297 63.54160404 390.77904415 C64.48917676 390.78569098 65.43674948 390.79233781 66.41303653 390.79918605 C69.58992777 390.81784671 72.7664434 390.81520866 75.94338322 390.81268978 C78.21995928 390.82170505 80.49653047 390.83203168 82.77309513 390.84357357 C88.95649889 390.87119719 95.13981069 390.88043541 101.32326818 390.88642764 C107.78421674 390.89579732 114.24509624 390.92199957 120.70600224 390.94643307 C131.55123485 390.98517246 142.39644205 391.01350929 153.24172306 391.03388119 C164.41167197 391.05489143 175.58157664 391.08216691 186.75148869 391.11786556 C187.44017105 391.12006439 188.12885341 391.12226321 188.83840493 391.12452867 C192.29337255 391.13559833 195.74833977 391.14679114 199.20330679 391.15804517 C227.85905716 391.25122766 256.51483561 391.32260521 285.17067814 391.38031673 C285.1588953 392.1383308 285.14711246 392.89634487 285.13497257 393.67732906 C285.08766791 397.17333286 285.05876378 400.66926895 285.03005314 404.16547298 C285.0112006 405.35741268 284.99234806 406.54935238 284.97292423 407.77741146 C284.89062612 421.18514504 288.04121958 433.06491079 292.26345158 445.68134212 C292.62130741 446.75163158 292.97916325 447.82192104 293.3478632 448.92464352 C293.61939213 449.73501568 293.89092106 450.54538784 294.17067814 451.38031673 C255.79981713 451.47184604 217.42897255 451.54234212 179.05802449 451.58457805 C174.52933204 451.58958096 170.0006398 451.59475824 165.47194767 451.6000433 C164.57035587 451.60109254 163.66876407 451.60214178 162.73985131 451.60322282 C148.13598803 451.62063427 133.53218765 451.65217603 118.9283617 451.68892792 C103.94663225 451.72631676 88.96493576 451.74854823 73.98316157 451.75667071 C64.73648148 451.76216276 55.48997917 451.77951702 46.2433538 451.8119826 C39.90501921 451.8331051 33.5667767 451.83952192 27.22840945 451.83432224 C23.56991276 451.83175691 19.911727 451.83572539 16.25328541 451.85713863 C12.2878391 451.88017948 8.32279916 451.87227904 4.35729313 451.8613348 C3.19970379 451.87298617 2.04211446 451.88463753 0.84944665 451.89664197 C-5.16665549 451.85160769 -9.23381978 451.70416165 -13.82932186 447.38031673 C-16.92605546 443.22823978 -17.20561196 440.14588309 -17.2096386 435.01951599 C-17.21429851 434.28447854 -17.21895843 433.54944109 -17.22375956 432.79212978 C-17.23573948 430.32159399 -17.2263028 427.8516051 -17.21700191 425.38106441 C-17.22117352 423.59498332 -17.22665009 421.80890488 -17.23332173 420.02283138 C-17.24781773 415.10877777 -17.24351866 410.19489128 -17.23615491 405.28082836 C-17.23143581 399.98353064 -17.24392191 394.68626974 -17.25417233 389.38898373 C-17.27139028 379.0089316 -17.27219415 368.62893993 -17.26695942 358.24887723 C-17.26292213 349.8141628 -17.26435602 341.37946627 -17.26970768 332.94475269 C-17.2704561 331.74543106 -17.27120452 330.54610943 -17.27197563 329.31044472 C-17.27350706 326.87422578 -17.27504541 324.43800683 -17.27659059 322.00178789 C-17.29032642 299.14265998 -17.28487029 276.28356626 -17.27340538 253.42443912 C-17.26347138 232.4998635 -17.27641467 211.57537629 -17.30033957 190.6508143 C-17.3247067 169.17812219 -17.33434435 147.70547129 -17.32768685 126.23276561 C-17.32418938 114.17238605 -17.32646146 102.1120745 -17.34393787 90.05170536 C-17.35863001 79.78517729 -17.35933447 69.51876513 -17.34186696 59.25223941 C-17.33333002 54.01202421 -17.331273 48.77201633 -17.34651852 43.53181171 C-17.36029547 38.73711517 -17.355693 33.94280492 -17.33627928 29.14813112 C-17.33249739 27.41130895 -17.33550378 25.67445635 -17.34589093 23.93766112 C-17.35898972 21.58029158 -17.34754249 19.22426943 -17.32989311 16.86695862 C-17.32973211 14.90141481 -17.32973211 14.90141481 -17.32956785 12.89616305 C-16.59908771 7.76217706 -14.54957899 4.78901223 -10.56865448 1.52908653 C-7.01555734 0.03905547 -3.78762271 -0.03505635 0 0 Z " fill="#F1F1FB" transform="translate(16.82932186126709,-0.38031673431396484)"/>
<path d="M0 0 C1.78591432 -0.01265991 1.78591432 -0.01265991 3.60790771 -0.02557558 C5.56430595 -0.01656051 5.56430595 -0.01656051 7.56022739 -0.00736332 C8.96270298 -0.01153631 10.36517519 -0.01701364 11.76764113 -0.02368313 C15.62136298 -0.03816114 19.4748714 -0.03388573 23.32860506 -0.02651632 C27.48479219 -0.02179276 31.6409326 -0.03428728 35.79710484 -0.04453373 C43.93925902 -0.06174296 52.08133611 -0.06255736 60.22350376 -0.05732083 C66.84042785 -0.05328189 73.45732913 -0.05471939 80.07425213 -0.06006908 C81.01546516 -0.06081751 81.9566782 -0.06156593 82.92641284 -0.06233703 C84.83839079 -0.06386848 86.75036873 -0.06540683 88.66234667 -0.066952 C106.59851131 -0.08068469 124.53463235 -0.07523392 142.470796 -0.06376678 C158.88497876 -0.05383326 175.29904883 -0.06677578 191.71321421 -0.09070098 C208.56189811 -0.11507476 225.41052949 -0.12470411 242.25923067 -0.11804825 C251.72066943 -0.11455224 261.18202148 -0.11681324 270.64344692 -0.13429928 C278.69764867 -0.14899974 286.75170267 -0.14968498 294.80590146 -0.13222837 C298.91603791 -0.12369821 303.02591018 -0.12161771 307.13603306 -0.13687992 C310.8982308 -0.15067735 314.6599368 -0.14602826 318.42210574 -0.12664068 C320.42860398 -0.12107568 322.43512696 -0.13519336 324.44157833 -0.14999479 C335.54543013 -0.05866488 335.54543013 -0.05866488 340.09161472 4.38031673 C344.52888891 9.40323639 344.6566517 13.52604865 344.57263279 19.90946102 C344.57605049 20.86197172 344.57946819 21.81448241 344.58298945 22.79585707 C344.58957166 25.98366007 344.56758609 29.17061881 344.54571629 32.35834408 C344.54458789 34.64491411 344.54522152 36.93148559 344.54748631 39.21805477 C344.54863466 45.42423998 344.52510531 51.6301164 344.49719048 57.8362298 C344.47219726 64.32247734 344.46983645 70.80873184 344.46508884 77.2950201 C344.45406619 88.18141851 344.42907589 99.06770282 344.39337254 109.9540472 C344.35664081 121.16562999 344.32833476 132.37718199 344.31134129 143.58881283 C344.31029039 144.28021946 344.3092395 144.97162609 344.30815676 145.68398444 C344.3029365 149.15266497 344.2978817 152.62134572 344.29290915 156.09002662 C344.25146107 184.8535316 344.18072694 213.61692145 344.09161472 242.38031673 C340.26953986 239.41338765 337.47900328 236.52631362 334.59161472 232.63031673 C330.72040064 227.4748627 326.73836075 222.43119042 322.65411472 217.44281673 C318.5819225 212.46067724 314.55083713 207.45273072 310.59161472 202.38031673 C306.64976441 197.33177988 302.64136852 192.3426911 298.59161472 187.38031673 C294.084015 181.85691989 289.64318831 176.28847238 285.25567722 170.66937923 C281.75385163 166.19594885 278.18347078 161.78167199 274.59161472 157.38031673 C270.43952579 152.2918462 266.32969324 147.17498465 262.27911472 142.00531673 C261.82826511 141.43321468 261.3774155 140.86111263 260.91290379 140.27167416 C258.86480225 137.66853257 256.84942435 135.05355194 254.87677097 132.39203548 C251.02254594 127.28019384 248.39970291 123.98601191 242.09161472 122.38031673 C236.40790501 121.66985302 232.57121785 122.93362902 228.09161472 126.38031673 C225.31677047 129.38547674 222.93233128 132.63690536 220.52911472 135.94281673 C219.8336655 136.87738705 219.13821629 137.81195736 218.42169285 138.77484798 C216.29860559 141.63396458 214.1934828 144.5055779 212.09161472 147.38031673 C210.89570619 149.00453475 209.69913135 150.62826246 208.50177097 152.25141048 C206.79266361 154.56988775 205.0850008 156.88934156 203.38238621 159.21259212 C199.02137071 165.15562313 194.57171109 171.02668184 190.09161472 176.88031673 C182.63628404 186.6257418 175.34051451 196.48080508 168.09161472 206.38031673 C165.57303923 209.81947949 163.05179867 213.25666686 160.52911472 216.69281673 C159.95725437 217.4754388 159.38539402 218.25806087 158.79620457 219.06439877 C152.60427189 227.49725635 152.60427189 227.49725635 149.09161472 231.38031673 C148.43161472 231.38031673 147.77161472 231.38031673 147.09161472 231.38031673 C145.73779323 229.89293438 144.46021587 228.33601123 143.21661472 226.75531673 C139.59032767 222.2195429 135.88888787 217.77376116 132.09161472 213.38031673 C127.77147716 208.36787119 123.54061905 203.29491338 119.36895847 198.15766048 C116.80957501 195.03635406 114.20571556 191.95578249 111.59161472 188.88031673 C107.50063587 184.06731748 103.48530908 179.20017995 99.50567722 174.29437923 C97.65035371 172.0547816 95.77334698 169.84756825 93.86505222 167.65375423 C93.03638645 166.69940487 93.03638645 166.69940487 92.19097996 165.72577572 C91.09847829 164.47149329 90.00174624 163.22088083 88.90045261 161.97431087 C85.09161472 157.60019062 85.09161472 157.60019062 85.09161472 155.38031673 C78.55508911 152.73037392 73.61431253 151.0103787 66.71661472 153.69281673 C62.46512253 156.38888495 59.67811962 160.32756515 56.61114597 164.25141048 C53.94616475 167.62875964 51.03856642 170.74926773 48.09161472 173.88031673 C44.44175221 177.77506734 40.93453595 181.71377723 37.59161472 185.88031673 C33.77167461 190.64140151 29.70222653 195.09304698 25.53302097 199.54437923 C22.41592919 202.89148543 19.4558036 206.31045814 16.59161472 209.88031673 C13.2485852 214.04699121 9.74037359 217.98441709 6.09161472 221.88031673 C0.82272923 227.50878494 -4.07528506 233.372372 -8.90838528 239.38031673 C-10.87170437 241.75369614 -12.86149527 244.07756548 -14.90838528 246.38031673 C-15.23838528 246.38031673 -15.56838528 246.38031673 -15.90838528 246.38031673 C-16.02246687 216.4345183 -16.11094322 186.48872719 -16.16371192 156.54275825 C-16.1699654 153.00675851 -16.17643702 149.4707592 -16.18304348 145.93476009 C-16.18435503 145.23081118 -16.18566658 144.52686227 -16.18701788 143.80158157 C-16.20876996 132.40575736 -16.24819034 121.01005937 -16.29414926 109.61431002 C-16.34091951 97.91978576 -16.36868185 86.22532757 -16.37882775 74.53071362 C-16.38535031 67.96257144 -16.40069694 61.39471545 -16.43703556 54.82666492 C-16.47095804 48.64527366 -16.48144555 42.46428667 -16.47392368 36.28281116 C-16.47529988 34.01363586 -16.48525424 31.74444713 -16.50441265 29.47535229 C-16.5292913 26.37692827 -16.52330849 23.28003036 -16.50965786 20.18157101 C-16.52422207 19.2836971 -16.53878627 18.38582319 -16.55379182 17.46074098 C-16.49183453 12.25770825 -15.63650632 9.0218176 -12.46927804 4.85996014 C-8.56471762 1.15864432 -5.33620556 0.00534369 0 0 Z " fill="#4BB8EB" transform="translate(76.90838527679443,59.619683265686035)"/>
<path d="M0 0 C1.65971167 1.40038172 3.30446209 2.81860244 4.9375 4.25 C5.70126953 4.8994458 5.70126953 4.8994458 6.48046875 5.56201172 C25.19872829 21.52922064 38.44594695 44.46030551 40.9375 69.25 C42.3587771 103.1600328 35.70385449 130.78543166 12.5625 156.4375 C-4.26951396 174.60543398 -28.9766444 187.93190276 -54.02832031 189.42700195 C-87.95802733 190.09505627 -114.27899741 182.85103222 -139.52709961 159.1730957 C-158.57738397 140.74075664 -169.96042479 113.03858511 -170.49389648 86.54858398 C-170.55220658 56.82676237 -160.68852503 30.36333833 -139.83203125 8.95703125 C-101.99788101 -28.02331588 -42.27749791 -32.81441867 0 0 Z " fill="#66BA00" transform="translate(471.0625,322.75)"/>
<path d="M0 0 C27.92625 -0.0825 55.8525 -0.165 84.625 -0.25 C93.44557129 -0.28641602 102.26614258 -0.32283203 111.35400391 -0.36035156 C122.11791992 -0.37841797 122.11791992 -0.37841797 127.15560913 -0.3817749 C130.67711448 -0.38550433 134.19837909 -0.4005051 137.71981812 -0.42230225 C142.21192681 -0.44973934 146.70368544 -0.45796465 151.19587016 -0.4522891 C152.84430104 -0.45347588 154.49274416 -0.46140781 156.14110303 -0.47686052 C158.36938233 -0.49677906 160.59630454 -0.49195456 162.82461548 -0.48101807 C164.69677703 -0.48654882 164.69677703 -0.48654882 166.60676003 -0.49219131 C171.96389698 0.28486433 174.81934979 2.66352385 178.34493637 6.65442848 C180.54081453 11.09321095 180.54532619 14.64327685 180.48101807 19.52914429 C180.48443577 20.48165498 180.48785347 21.43416568 180.49137473 22.41554034 C180.49795694 25.60334334 180.47597136 28.79030207 180.45410156 31.97802734 C180.45297316 34.26459737 180.4536068 36.55116885 180.45587158 38.83773804 C180.45701993 45.04392325 180.43349058 51.24979966 180.40557575 57.45591307 C180.38058254 63.94216061 180.37822173 70.42841511 180.37347412 76.91470337 C180.36245147 87.80110178 180.33746117 98.68738608 180.30175781 109.57373047 C180.26502609 120.78531326 180.23672004 131.99686526 180.21972656 143.20849609 C180.21867567 143.89990273 180.21762477 144.59130936 180.21654204 145.30366771 C180.21132178 148.77234824 180.20626697 152.24102899 180.20129442 155.70970988 C180.15984635 184.47321487 180.08911222 213.23660472 180 242 C176.17792514 239.03307092 173.38738855 236.14599688 170.5 232.25 C166.62878591 227.09454596 162.64674603 222.05087369 158.5625 217.0625 C154.49030778 212.08036051 150.45922241 207.07241399 146.5 202 C142.55814969 196.95146314 138.5497538 191.96237437 134.5 187 C129.99240027 181.47660315 125.55157358 175.90815564 121.1640625 170.2890625 C117.6622369 165.81563211 114.09185606 161.40135526 110.5 157 C106.34791106 151.91152947 102.23807851 146.79466792 98.1875 141.625 C97.73665039 141.05289795 97.28580078 140.4807959 96.82128906 139.89135742 C94.77318753 137.28821584 92.75780962 134.67323521 90.78515625 132.01171875 C86.93093122 126.89987711 84.30808819 123.60569517 78 122 C72.31629029 121.28953629 68.47960312 122.55331229 64 126 C61.22515575 129.00516001 58.84071655 132.25658863 56.4375 135.5625 C55.74205078 136.49707031 55.04660156 137.43164062 54.33007812 138.39453125 C52.20699087 141.25364785 50.10186808 144.12526117 48 147 C46.80409147 148.62421802 45.60751663 150.24794573 44.41015625 151.87109375 C42.70104889 154.18957102 40.99338607 156.50902483 39.29077148 158.83227539 C34.27715214 165.66465085 29.1415404 172.40006875 23.98730469 179.12670898 C18.73145734 186.00018366 13.58585242 192.94940679 8.515625 199.9609375 C7.979375 200.69699219 7.443125 201.43304688 6.890625 202.19140625 C6.42688477 202.83279541 5.96314453 203.47418457 5.48535156 204.13500977 C3.81771959 206.22886917 1.8927815 208.1072185 0 210 C0 140.7 0 71.4 0 0 Z " fill="#0094FE" transform="translate(241,60)"/>
<path d="M0 0 C29.32589943 -0.08818187 58.65171442 -0.16203845 87.97771246 -0.20426132 C91.43989448 -0.20926415 94.90207621 -0.21444143 98.36425781 -0.21972656 C99.05351596 -0.2207758 99.74277411 -0.22182505 100.45291887 -0.22290608 C111.61336717 -0.24031142 122.77373306 -0.27184979 133.93413247 -0.30861118 C145.38570846 -0.34601709 156.83721756 -0.36793568 168.28885639 -0.37635398 C174.72110701 -0.38157377 181.1531707 -0.39386242 187.58536148 -0.42292023 C193.63785088 -0.45004155 199.69007608 -0.45845151 205.74262047 -0.45243073 C207.9654439 -0.45353242 210.18827604 -0.4615056 212.41104698 -0.4768219 C215.44396358 -0.49669795 218.47588026 -0.4919474 221.50881958 -0.48101807 C222.39015159 -0.49266943 223.2714836 -0.5043208 224.17952263 -0.51632524 C229.58458424 -0.46361106 232.78706503 0.29350828 237 4 C239.6281216 7.67010705 240.37436789 10.16840033 240.36914349 14.65964985 C240.37511663 15.79474186 240.38108978 16.92983388 240.38724393 18.09932262 C240.3785054 19.34153471 240.36976688 20.5837468 240.36076355 21.86360168 C240.36207198 23.20022935 240.3646991 24.53685626 240.36853105 25.87347907 C240.37524063 29.54498926 240.36323699 33.21623703 240.34819686 36.88771379 C240.33524753 40.84744468 240.33962518 44.80716064 240.34190369 48.76690674 C240.34347712 55.62695131 240.33406061 62.48691032 240.31719017 69.34693336 C240.29281422 79.2653743 240.28499634 89.18377384 240.2812262 99.10224148 C240.27465951 115.19407963 240.25469244 131.28587217 240.22631836 147.37768555 C240.19878342 163.00984468 240.17754707 178.64199143 240.16479492 194.27416992 C240.16361267 195.71939885 240.16361267 195.71939885 240.16240653 197.19382433 C240.15849143 202.02732609 240.1547003 206.86082795 240.15097082 211.69432986 C240.11986814 251.79625184 240.06702641 291.89812291 240 332 C239.52908432 331.59325043 239.05816864 331.18650085 238.57298279 330.76742554 C237.95004837 330.23106476 237.32711395 329.69470398 236.68530273 329.14208984 C236.07001205 328.61159027 235.45472137 328.0810907 234.82078552 327.53451538 C220.66656172 315.60566716 204.73755577 308.65543173 187 304 C184.66574888 303.33655399 182.33227584 302.67035683 180 302 C179.99853344 300.80986486 179.99706688 299.61972973 179.99555588 298.39352989 C179.95985414 270.14232592 179.90361335 241.8912139 179.82207905 213.64010527 C179.81206159 210.16290263 179.80221746 206.68569953 179.79248047 203.20849609 C179.7905391 202.51624733 179.78859772 201.82399856 179.78659752 201.11077257 C179.75557614 189.90187387 179.7385965 178.69299565 179.72680578 167.48406212 C179.71439491 155.98270407 179.68659758 144.48146934 179.64538693 132.98017657 C179.62272752 126.5200258 179.60709201 120.06002848 179.60811615 113.59983444 C179.6088601 107.5210074 179.59101552 101.44252014 179.55883217 95.36378098 C179.55030404 93.13131255 179.54860289 90.89880614 179.55419731 88.66632843 C179.56081468 85.62020111 179.54297006 82.57516201 179.51898193 79.52914429 C179.52674235 78.64392133 179.53450277 77.75869838 179.54249835 76.84665048 C179.4670016 71.43813717 178.70825312 68.21546432 175 64 C171.05423076 60.83853832 167.92666984 60.61965561 162.94487 60.60127258 C162.24639397 60.59462576 161.54791794 60.58797893 160.82827598 60.58113068 C158.49433612 60.56251953 156.16090976 60.56510461 153.8269043 60.56762695 C152.15130388 60.55860862 150.47571008 60.54828122 148.80012512 60.53674316 C144.2550942 60.50915539 139.71018841 60.49988623 135.1650846 60.49388909 C130.41378298 60.48451007 125.66257499 60.45830705 120.91133118 60.43388367 C111.91586055 60.39020203 102.92040808 60.36166527 93.92486364 60.33856028 C83.68305075 60.31151755 73.44133198 60.26760546 63.19958627 60.22227156 C42.13309483 60.12940137 21.06661259 60.05995844 0 60 C0 40.2 0 20.4 0 0 Z " fill="#D7D7FB" transform="translate(241,0)"/>
<path d="M0 0 C4.83454244 2.51242623 7.72508026 6.08149519 11.01171875 10.33984375 C11.6142749 11.09579834 12.21683105 11.85175293 12.83764648 12.63061523 C14.63946997 14.89760992 16.42111669 17.17922055 18.19921875 19.46484375 C19.16185153 20.68821572 20.12532304 21.91092844 21.08984375 23.1328125 C22.42520416 24.8271823 23.75837703 26.52305949 25.08520508 28.22412109 C28.56561963 32.68540864 32.12120559 37.08158104 35.69921875 41.46484375 C40.20689089 46.98818032 44.64764642 52.55668972 49.03515625 58.17578125 C52.53698122 62.64921083 56.10733039 67.06351577 59.69921875 71.46484375 C64.20384858 76.98460143 68.64217554 82.54906158 73.02636719 88.16479492 C77.15473033 93.43917608 81.38196395 98.6306046 85.6159668 103.8203125 C89.54900566 108.64703414 93.41941253 113.51673379 97.19921875 118.46484375 C94.19999486 119.46458505 92.50322486 119.52129423 89.39453125 119.38671875 C59.59680194 118.47418815 33.52603988 127.22545695 11.32421875 147.33984375 C-6.74967873 164.37085969 -14.88403561 184.79786119 -20.80078125 208.46484375 C-40.93078125 208.46484375 -61.06078125 208.46484375 -81.80078125 208.46484375 C-82.44339994 179.06950111 -82.44339994 179.06950111 -82.60484314 164.40665913 C-82.69305425 156.51812845 -82.80448492 148.63234386 -83.0078125 140.74584961 C-83.16888866 134.49510786 -83.27087523 128.24644945 -83.30619717 121.99368972 C-83.32680745 118.69080998 -83.38284545 115.39516726 -83.49246216 112.09388161 C-84.09279653 93.24307781 -80.76332129 82.6179775 -67.83981323 68.73967552 C-64.52206996 65.03825844 -61.68212293 61.0084166 -58.80078125 56.96484375 C-53.22866209 49.34388578 -47.5256759 41.82891616 -41.78588867 34.33374023 C-36.57184999 27.511865 -31.45756738 20.62143739 -26.40429688 13.6796875 C-12.2702048 -5.66709875 -12.2702048 -5.66709875 0 0 Z " fill="#32393F" transform="translate(322.80078125,182.53515625)"/>
<path d="M0 0 C9.06192959 7.16808813 15.11363827 18.28616249 16.92578125 29.625 C17.7735905 43.74200984 14.46266532 55.52893313 6.1796875 67.0546875 C-1.79512618 75.86985789 -14.22005921 80.96460689 -25.90234375 81.8359375 C-38.1377438 82.24378417 -47.29241541 78.89629356 -57.07421875 71.625 C-57.72261719 71.14675781 -58.37101563 70.66851562 -59.0390625 70.17578125 C-63.40177315 66.40663668 -65.86218003 61.68885562 -68.44921875 56.625 C-68.79557373 55.94832275 -69.14192871 55.27164551 -69.4987793 54.57446289 C-74.86335927 43.49160916 -74.21625637 31.13067877 -70.34765625 19.67578125 C-68.4777983 15.19615225 -66.01945576 11.46028116 -63.07421875 7.625 C-62.20796875 6.325625 -62.20796875 6.325625 -61.32421875 5 C-44.10639989 -13.17436436 -20.06099828 -13.29843954 0 0 Z " fill="#FDD92E" transform="translate(194.07421875,99.375)"/>
<path d="M0 0 C3.56299193 2.93120367 5.60138067 6.37347523 6.2097168 10.90795898 C6.28670078 13.44942685 6.24499094 15.95562277 6.14453125 18.49609375 C6.12648438 19.37072266 6.1084375 20.24535156 6.08984375 21.14648438 C6.04311478 23.28433483 5.97138566 25.4216142 5.89453125 27.55859375 C7.704375 27.48898437 7.704375 27.48898437 9.55078125 27.41796875 C11.16533961 27.38042088 12.77992503 27.34402398 14.39453125 27.30859375 C15.18601562 27.27507812 15.9775 27.2415625 16.79296875 27.20703125 C22.59263894 27.11195469 27.11933692 28.13660523 31.89453125 31.55859375 C34.66534807 34.6988201 35.79011204 37.8407117 36.39453125 41.99609375 C35.77981543 46.37594396 34.84563635 50.18291928 31.89453125 53.55859375 C26.23460294 57.49750498 21.14043921 58.09425109 14.39453125 57.80859375 C13.57210937 57.79054688 12.7496875 57.7725 11.90234375 57.75390625 C9.89922321 57.70732205 7.89671304 57.63560074 5.89453125 57.55859375 C5.9409375 58.76515625 5.98734375 59.97171875 6.03515625 61.21484375 C6.07270412 62.82940211 6.10910102 64.44398753 6.14453125 66.05859375 C6.17804688 66.85007812 6.2115625 67.6415625 6.24609375 68.45703125 C6.34226646 74.32356684 5.27611822 78.69949977 1.89453125 83.55859375 C-1.48114322 86.50969885 -5.28811854 87.44387793 -9.66796875 88.05859375 C-13.8233508 87.45417454 -16.9652424 86.32941057 -20.10546875 83.55859375 C-24.09556467 77.9906372 -24.63803489 72.73150181 -24.35546875 66.05859375 C-24.33742188 65.23617187 -24.319375 64.41375 -24.30078125 63.56640625 C-24.25419705 61.56328571 -24.18247574 59.56077554 -24.10546875 57.55859375 C-25.39582031 57.605 -26.68617188 57.65140625 -28.015625 57.69921875 C-29.73304963 57.73675809 -31.45049947 57.77315592 -33.16796875 57.80859375 C-34.01552734 57.84210938 -34.86308594 57.875625 -35.73632812 57.91015625 C-41.75314141 58.00308001 -45.21966645 57.1410957 -50.10546875 53.55859375 C-52.94442589 50.10773106 -53.99084399 46.37529514 -54.60546875 41.99609375 C-54.0036048 37.85827908 -52.98029343 34.64957066 -50.10546875 31.55859375 C-44.39411283 27.4296367 -40.09600305 27.03463346 -33.16796875 27.30859375 C-31.85602539 27.33566406 -31.85602539 27.33566406 -30.51757812 27.36328125 C-28.37972767 27.41001022 -26.2424483 27.48173934 -24.10546875 27.55859375 C-24.151875 26.26824219 -24.19828125 24.97789062 -24.24609375 23.6484375 C-24.28363309 21.93101287 -24.32003092 20.21356303 -24.35546875 18.49609375 C-24.38898438 17.64853516 -24.4225 16.80097656 -24.45703125 15.92773438 C-24.55005436 9.90448829 -23.65465503 6.46798511 -20.10546875 1.55859375 C-14.02480529 -4.09684848 -7.08748902 -3.24783102 0 0 Z " fill="#D7D7FA" transform="translate(415.10546875,363.44140625)"/>
<path d="M0 0 C20.13 0 40.26 0 61 0 C61 8.91 61 17.82 61 27 C63.28621511 38.62159348 66.25005779 48.75017338 70 60 C46.9 60 23.8 60 0 60 C0 40.2 0 20.4 0 0 Z " fill="#D7D7FB" transform="translate(241,391)"/>
</svg>
