<?xml version="1.0" encoding="UTF-8"?>
<svg version="1.1" xmlns="http://www.w3.org/2000/svg" width="565" height="326">
<path d="M0 0 C7.34986161 5.26848487 12.70174521 12.38641301 14.3125 21.375 C15.61417585 33.23652122 12.27676409 42.51964362 4.984375 51.84179688 C3.97117187 53.09573242 3.97117187 53.09573242 2.9375 54.375 C1.49075542 56.2176265 0.04547041 58.06139981 -1.3984375 59.90625 C-2.1212793 60.82277344 -2.84412109 61.73929687 -3.58886719 62.68359375 C-6.70865965 66.6845933 -9.70029707 70.77461274 -12.6875 74.875 C-18.271956 82.50395104 -23.98030267 90.03149697 -29.7265625 97.5390625 C-34.10814326 103.27402727 -38.42292958 109.05259563 -42.6875 114.875 C-48.2741242 122.50240017 -53.98026338 130.03144565 -59.7265625 137.5390625 C-64.10814326 143.27402727 -68.42292958 149.05259563 -72.6875 154.875 C-78.2741242 162.50240017 -83.98026338 170.03144565 -89.7265625 177.5390625 C-94.10814326 183.27402727 -98.42292958 189.05259563 -102.6875 194.875 C-108.2741242 202.50240017 -113.98026338 210.03144565 -119.7265625 217.5390625 C-124.10814326 223.27402727 -128.42292958 229.05259563 -132.6875 234.875 C-138.2741242 242.50240017 -143.98026338 250.03144565 -149.7265625 257.5390625 C-154.10815065 263.27403695 -158.42250694 269.05289764 -162.6875 274.875 C-167.77691224 281.81404169 -172.9232619 288.70719733 -178.125 295.5625 C-178.77533203 296.42359375 -179.42566406 297.2846875 -180.09570312 298.171875 C-188.25556931 308.88956152 -195.54459494 318.42018466 -209.8125 320.375 C-220.21268497 320.79034285 -228.84796048 317.642503 -236.6015625 310.6484375 C-242.63743209 304.20161509 -247.6361813 296.75615383 -252.828125 289.62890625 C-256.78564047 284.21223489 -260.8563394 278.88625669 -264.9375 273.5625 C-266.91359625 270.96670377 -268.88742527 268.36920219 -270.86035156 265.77099609 C-272.03333217 264.23283044 -273.21190483 262.69890412 -274.39746094 261.17041016 C-275.88575497 259.25057465 -277.35162766 257.31573052 -278.8125 255.375 C-279.2446582 254.82996826 -279.67681641 254.28493652 -280.12207031 253.72338867 C-281.2578125 252.1875 -281.2578125 252.1875 -282.6875 249.375 C-281.59765755 245.69350472 -279.82753474 242.9689407 -277.484375 239.9609375 C-276.84048828 239.12667236 -276.19660156 238.29240723 -275.53320312 237.43286133 C-274.49583008 236.10484497 -274.49583008 236.10484497 -273.4375 234.75 C-271.98303071 232.86692296 -270.52993365 230.98278534 -269.078125 229.09765625 C-268.34400391 228.1452002 -267.60988281 227.19274414 -266.85351562 226.21142578 C-263.57161048 221.91372808 -260.37793118 217.55328392 -257.1875 213.1875 C-245.6731126 197.49705189 -245.6731126 197.49705189 -242.6875 194.375 C-242.0275 194.375 -241.3675 194.375 -240.6875 194.375 C-239.22797976 196.23855053 -237.89011005 198.10687173 -236.5625 200.0625 C-231.25313335 207.71957354 -225.59415407 215.08907851 -219.87060547 222.44018555 C-218.86344482 223.74596558 -218.86344482 223.74596558 -217.8359375 225.078125 C-217.22927246 225.85833008 -216.62260742 226.63853516 -215.99755859 227.44238281 C-214.6875 229.375 -214.6875 229.375 -214.6875 231.375 C-209.80516983 227.96008632 -206.78530375 223.72361773 -203.375 218.9375 C-202.13052629 217.21887783 -200.88436914 215.50147367 -199.63671875 213.78515625 C-198.99009277 212.8945752 -198.3434668 212.00399414 -197.67724609 211.08642578 C-194.41025295 206.63449622 -191.0482955 202.25629151 -187.6875 197.875 C-182.6202199 191.25612737 -177.61313454 184.59995309 -172.6875 177.875 C-167.76185157 171.15002794 -162.75395012 164.49452221 -157.6875 157.875 C-151.94378366 150.3693524 -146.28544097 142.80812357 -140.6953125 135.1875 C-136.57372208 129.56971579 -132.40731221 123.9878714 -128.21679688 118.42138672 C-124.42002205 113.37027554 -120.67499918 108.28256615 -116.9375 103.1875 C-111.26865562 95.46527421 -105.48533023 87.83635647 -99.66259766 80.22973633 C-94.54753116 73.5355093 -89.53474478 66.77157399 -84.5546875 59.9765625 C-80.54749173 54.5172178 -76.44759688 49.1441445 -72.296875 43.79296875 C-69.71742416 40.43988386 -67.21667791 37.0310911 -64.7175293 33.61791992 C-62.32923711 30.35698881 -59.92866708 27.10526047 -57.52392578 23.85644531 C-56.2932773 22.19354832 -55.06510986 20.5288125 -53.83935547 18.86230469 C-52.03308212 16.41725653 -50.20689876 13.98838566 -48.375 11.5625 C-47.83713867 10.82813721 -47.29927734 10.09377441 -46.74511719 9.3371582 C-35.07726713 -5.9454584 -16.51715653 -10.11254482 0 0 Z " fill="#01A0E6" transform="translate(440.6875,5.625)"/>
<path d="M0 0 C6.469099 5.50245202 11.00429554 13.24928595 12.0390625 21.734375 C13.1450395 38.04753576 3.20340388 49.42125559 -6.35717773 61.56323242 C-10.62309323 66.98369749 -14.76644647 72.47766998 -18.8359375 78.046875 C-23.80126385 84.83615595 -28.84759386 91.55585982 -33.9609375 98.234375 C-39.0275656 104.85375774 -44.03529209 111.50940707 -48.9609375 118.234375 C-54.54539608 125.85881845 -60.24909382 133.38512433 -65.9934082 140.88964844 C-71.03462031 147.48767856 -75.97543635 154.15365721 -80.8828125 160.8515625 C-85.19951742 166.7317209 -89.61129931 172.53228094 -94.06054688 178.3125 C-98.77567716 184.45420069 -103.3631076 190.68564621 -107.94140625 196.9296875 C-111.99527481 202.44946388 -116.1389858 207.88501623 -120.3359375 213.296875 C-123.61364472 217.55789438 -126.78137197 221.89995525 -129.9609375 226.234375 C-134.71794469 232.71778735 -139.5395897 239.13545567 -144.46484375 245.4921875 C-148.89815531 251.22815288 -153.21696904 257.05175605 -157.55761719 262.85791016 C-160.31524569 266.54530276 -163.08026653 270.2271507 -165.84375 273.91015625 C-167.21522099 275.7396277 -168.58511479 277.57028301 -169.953125 279.40234375 C-171.37901711 281.30981074 -172.81033252 283.21323168 -174.24609375 285.11328125 C-176.45092009 288.0367937 -178.61046223 290.99178526 -180.76953125 293.94921875 C-182.166232 295.8362593 -183.56337055 297.72297588 -184.9609375 299.609375 C-185.61328369 300.51357178 -186.26562988 301.41776855 -186.93774414 302.34936523 C-193.3296281 310.91405995 -200.2289922 316.13314339 -210.77734375 318.390625 C-221.06761929 319.50172224 -229.89878118 316.54483103 -237.890625 310.203125 C-244.98693543 303.74639619 -248.56827978 295.52607643 -249.2109375 286.046875 C-248.89078148 270.50475558 -237.59887334 258.82736522 -228.5 247.26953125 C-225.44518396 243.37794705 -222.48840875 239.4278699 -219.5859375 235.421875 C-215.19713141 229.37219574 -210.69127475 223.41916345 -206.1484375 217.484375 C-201.01965664 210.78145572 -195.94780588 204.04354695 -190.9609375 197.234375 C-185.37434994 189.60694839 -179.66817352 182.07792858 -173.921875 174.5703125 C-168.95697468 168.07185224 -164.08965677 161.50786806 -159.25878906 154.90942383 C-154.81612648 148.85657987 -150.27715113 142.88189541 -145.7109375 136.921875 C-141.36977647 131.25379305 -137.06679413 125.57557018 -132.9609375 119.734375 C-128.19772995 112.95799981 -123.16187792 106.39857064 -118.125 99.82421875 C-113.67369525 94.00584662 -109.2884551 88.14529727 -104.9609375 82.234375 C-99.3744899 74.60684811 -93.66817104 67.07792533 -87.921875 59.5703125 C-83.54029189 53.83534465 -79.22563781 48.05668689 -74.9609375 42.234375 C-68.027866 32.77265409 -60.9470951 23.42544482 -53.79736328 14.12646484 C-52.54981168 12.5014302 -51.3088152 10.87134639 -50.07373047 9.23681641 C-49.46803223 8.44194824 -48.86233398 7.64708008 -48.23828125 6.828125 C-47.43571899 5.76754883 -47.43571899 5.76754883 -46.61694336 4.68554688 C-34.39170316 -9.71871667 -14.91226642 -10.64409123 0 0 Z " fill="#0285BF" transform="translate(552.9609375,7.265625)"/>
<path d="M0 0 C6.19291159 4.19497808 10.41644614 8.6228871 14.6875 14.7253418 C15.97929514 16.50874457 17.27230447 18.29126835 18.56640625 20.07299805 C19.55084717 21.44222412 19.55084717 21.44222412 20.55517578 22.83911133 C23.82956092 27.34328256 27.23161627 31.74807665 30.625 36.1628418 C36.25782545 43.52800884 41.79473417 50.95641952 47.27368164 58.43652344 C51.63534082 64.37728706 56.08311501 70.24796524 60.5625 76.1003418 C66.21603395 83.48675971 71.77720194 90.93228645 77.2734375 98.4362793 C81.63527294 104.37705969 86.08320271 110.24775097 90.5625 116.1003418 C96.82599493 124.28782846 102.99412292 132.53754578 109.07421875 140.86206055 C111.53780934 144.22894416 114.04679707 147.55662406 116.58203125 150.86987305 C117.56502197 152.16707275 117.56502197 152.16707275 118.56787109 153.49047852 C119.83021235 155.15477832 121.10230259 156.81174057 122.38525391 158.46020508 C122.94776855 159.20641113 123.5102832 159.95261719 124.08984375 160.72143555 C124.84382446 161.70261353 124.84382446 161.70261353 125.61303711 162.70361328 C126.5625 164.6003418 126.5625 164.6003418 126.37939453 166.60473633 C125.47401483 168.81650371 124.39618271 170.49414988 122.96484375 172.40893555 C122.41844238 173.14563477 121.87204102 173.88233398 121.30908203 174.64135742 C120.71208496 175.43219727 120.11508789 176.22303711 119.5 177.0378418 C118.57356689 178.28017578 118.57356689 178.28017578 117.62841797 179.54760742 C112.1835819 186.82917364 106.66432548 194.0549678 101.14038086 201.27661133 C96.52105923 207.31967694 91.97435887 213.40342161 87.5625 219.6003418 C84.10160328 218.16294943 82.39714538 216.46215097 80.1640625 213.47924805 C79.52726563 212.63620117 78.89046875 211.7931543 78.234375 210.92456055 C77.55890625 210.01319336 76.8834375 209.10182617 76.1875 208.1628418 C75.47851562 207.21924805 74.76953125 206.2756543 74.0390625 205.3034668 C68.93260743 198.49182048 63.88553601 191.63568288 58.85400391 184.76855469 C54.49221587 178.82575706 50.04292317 172.95407475 45.5625 167.1003418 C39.90896605 159.71392388 34.34779806 152.26839714 28.8515625 144.7644043 C24.48972968 138.82362746 20.04195452 132.95280919 15.5625 127.1003418 C9.90896605 119.71392388 4.34779806 112.26839714 -1.1484375 104.7644043 C-5.51027394 98.82362254 -9.95826071 92.95297832 -14.4375 87.1003418 C-21.35187994 78.06031915 -28.15711958 68.94753151 -34.86083984 59.75024414 C-36.36781785 57.69535899 -37.89382535 55.65617236 -39.42578125 53.61987305 C-47.01109606 43.45229501 -50.67025745 35.57033918 -49.4375 22.6003418 C-47.84685782 13.61536301 -42.46383413 6.48592201 -35.125 1.2253418 C-23.91413177 -5.63845508 -11.56329203 -6.63985909 0 0 Z " fill="#023D56" transform="translate(49.4375,4.399658203125)"/>
<path d="M0 0 C7.17614208 6.1110375 11.39110846 13.28336057 12.41796875 22.640625 C12.92045478 34.81020847 8.21724534 43.52736834 0.73046875 52.79296875 C-0.71627583 54.63559525 -2.16156084 56.47936856 -3.60546875 58.32421875 C-4.32831055 59.24074219 -5.05115234 60.15726562 -5.79589844 61.1015625 C-8.9156909 65.10256205 -11.90732832 69.19258149 -14.89453125 73.29296875 C-20.46816257 80.90713214 -26.16428516 88.42099589 -31.90063477 95.91308594 C-37.2307316 102.88787231 -42.4592661 109.93315921 -47.64257812 117.01757812 C-48.18849609 117.76330078 -48.73441406 118.50902344 -49.296875 119.27734375 C-49.77632568 119.93444336 -50.25577637 120.59154297 -50.74975586 121.26855469 C-51.89453125 122.79296875 -51.89453125 122.79296875 -52.89453125 123.79296875 C-75.8812137 125.36870726 -104.75876858 124.36085009 -125.89453125 113.79296875 C-125.35589848 110.13184432 -124.5537712 107.90521524 -122.2265625 105.03515625 C-121.67049316 104.33737061 -121.11442383 103.63958496 -120.54150391 102.9206543 C-119.93612793 102.17726807 -119.33075195 101.43388184 -118.70703125 100.66796875 C-117.41713597 99.04857318 -116.12943874 97.42742479 -114.84375 95.8046875 C-113.8544751 94.55824463 -113.8544751 94.55824463 -112.84521484 93.28662109 C-109.81622848 89.41452264 -106.91575482 85.45231352 -104.01953125 81.48046875 C-99.05494597 74.69065799 -94.00786138 67.97146628 -88.89453125 61.29296875 C-83.82789812 54.67357944 -78.8204501 48.01774143 -73.89453125 41.29296875 C-68.83396213 34.38908333 -63.70493126 27.54114339 -58.51953125 20.73046875 C-57.87757813 19.88613281 -57.235625 19.04179687 -56.57421875 18.171875 C-54.69068581 15.70460252 -52.79449072 13.24760787 -50.89453125 10.79296875 C-50.20842773 9.89529785 -49.52232422 8.99762695 -48.81542969 8.07275391 C-48.12739258 7.18765137 -47.43935547 6.30254883 -46.73046875 5.390625 C-45.80693604 4.19385132 -45.80693604 4.19385132 -44.86474609 2.97290039 C-32.88176949 -10.2855876 -13.81379762 -9.90192573 0 0 Z " fill="#026D9B" transform="translate(442.89453125,7.20703125)"/>
<path d="M0 0 C2.59491032 2.17038511 4.29591635 4.37184706 5.80859375 7.390625 C5.97434279 10.99247913 4.17638861 13.80926519 2.53515625 16.91015625 C2.17010986 17.6151123 1.80506348 18.32006836 1.42895508 19.04638672 C-7.91204446 36.85409526 -19.22287622 52.06166835 -33.08984375 66.59765625 C-33.8890625 67.44972656 -34.68828125 68.30179687 -35.51171875 69.1796875 C-56.21329394 90.65926307 -82.2658335 104.68355603 -110.08984375 114.59765625 C-111.30542969 115.04367188 -112.52101563 115.4896875 -113.7734375 115.94921875 C-119.59878572 118.01220831 -124.91842994 119.18622866 -131.08984375 119.59765625 C-130.47873147 116.40864878 -129.42966589 114.38094041 -127.4921875 111.7890625 C-126.67331055 110.68498047 -126.67331055 110.68498047 -125.83789062 109.55859375 C-125.24041016 108.76710938 -124.64292969 107.975625 -124.02734375 107.16015625 C-123.40537109 106.32613281 -122.78339844 105.49210937 -122.14257812 104.6328125 C-116.83081027 97.529314 -111.44465301 90.48180486 -106.05444336 83.43774414 C-101.67107029 77.70182359 -97.35550258 71.92154661 -93.08984375 66.09765625 C-87.50755082 58.47616955 -81.80629587 50.95260214 -76.06396484 43.45117188 C-71.55124783 37.54512749 -67.11042131 31.59129672 -62.71484375 25.59765625 C-60.50819963 22.59641 -58.29971831 19.59652454 -56.08984375 16.59765625 C-55.60757324 15.94200684 -55.12530273 15.28635742 -54.62841797 14.61083984 C-46.89477193 4.14222353 -40.32267971 -3.40736737 -27.52734375 -7.15234375 C-16.91033369 -8.24126786 -8.82846556 -6.00848382 0 0 Z " fill="#026D9B" transform="translate(553.08984375,7.40234375)"/>
<path d="M0 0 C0 0.66 0 1.32 0 2 C-1.33359121 2.84226813 -2.66846621 3.68253879 -4.0078125 4.515625 C-7.66459224 7.24028441 -10.68806267 10.66081723 -13.828125 13.953125 C-16 16 -16 16 -18 16 C-14.98247032 9.40559367 -8.04968782 0 0 0 Z " fill="#1E7BA4" transform="translate(520,3)"/>
<path d="M0 0 C0.66 0.33 1.32 0.66 2 1 C0.8758824 2.29243468 -0.24932592 3.58392075 -1.375 4.875 C-2.00148438 5.59429688 -2.62796875 6.31359375 -3.2734375 7.0546875 C-4.47426834 8.4076598 -5.7208345 9.7208345 -7 11 C-7.99 10.67 -8.98 10.34 -10 10 C-8.90033225 8.70450101 -7.79508199 7.41373929 -6.6875 6.125 C-6.07261719 5.40570312 -5.45773438 4.68640625 -4.82421875 3.9453125 C-3 2 -3 2 0 0 Z " fill="#27536A" transform="translate(15,5)"/>
<path d="M0 0 C0.66 0.33 1.32 0.66 2 1 C0.8758824 2.29243468 -0.24932592 3.58392075 -1.375 4.875 C-2.00148438 5.59429688 -2.62796875 6.31359375 -3.2734375 7.0546875 C-4.47426834 8.4076598 -5.7208345 9.7208345 -7 11 C-7.99 10.67 -8.98 10.34 -10 10 C-3.84965831 2.51708428 -3.84965831 2.51708428 0 0 Z " fill="#227FA7" transform="translate(404,5)"/>
<path d="M0 0 C-0.99 1.485 -0.99 1.485 -2 3 C-6.23998354 3.39259107 -9.36733941 3.32490278 -13 1 C-8.59085217 -0.10228696 -4.51617599 -0.07654536 0 0 Z " fill="#447082" transform="translate(37,0)"/>
<path d="M0 0 C0.66 0 1.32 0 2 0 C2.66 1.32 3.32 2.64 4 4 C1.02588876 5.23921302 -1.85262818 6.30058404 -5 7 C-1.125 1.125 -1.125 1.125 0 0 Z " fill="#28B0E7" transform="translate(198,200)"/>
</svg>
